<?xml version="1.0" encoding="UTF-8" standalone="no"?><!DOCTYPE svg PUBLIC "-//W3C//DTD SVG 1.1//EN" "http://www.w3.org/Graphics/SVG/1.1/DTD/svg11.dtd"><svg width="100%" height="100%" viewBox="0 0 23 26" version="1.1" xmlns="http://www.w3.org/2000/svg" xmlns:xlink="http://www.w3.org/1999/xlink" xml:space="preserve" xmlns:serif="http://www.serif.com/" style="fill-rule:evenodd;clip-rule:evenodd;stroke-linejoin:round;stroke-miterlimit:1.41421;"><path d="M14.773,17.566l-6.662,0c0.072,-1.616 0.642,-3.025 1.479,-3.876c0.101,-0.092 0.237,-0.138 0.374,-0.126c0.137,0.012 0.263,0.08 0.347,0.189c0.246,0.306 0.575,0.731 0.815,1.041c0.075,0.097 0.192,0.153 0.315,0.152c0.123,-0.001 0.239,-0.058 0.312,-0.156c0.236,-0.313 0.558,-0.741 0.795,-1.054c0.084,-0.111 0.212,-0.183 0.351,-0.197c0.139,-0.013 0.278,0.033 0.382,0.126c0.841,0.854 1.42,2.273 1.492,3.901Zm5.492,-0.806l-4.547,0c-0.238,-1.182 -0.682,-2.228 -1.268,-3.041c0.187,-0.316 0.398,-0.597 0.632,-0.834c0.101,-0.092 0.237,-0.138 0.374,-0.126c0.137,0.011 0.262,0.08 0.346,0.188c0.247,0.307 0.576,0.731 0.816,1.041c0.075,0.097 0.191,0.154 0.314,0.153c0.123,-0.001 0.239,-0.058 0.313,-0.156c0.235,-0.313 0.558,-0.741 0.795,-1.054c0.084,-0.112 0.211,-0.183 0.351,-0.197c0.139,-0.013 0.277,0.033 0.382,0.126c0.841,0.854 1.419,2.273 1.492,3.9Zm-12.983,0l-4.547,0c0.073,-1.627 0.651,-3.046 1.492,-3.9c0.105,-0.093 0.243,-0.139 0.382,-0.126c0.14,0.014 0.267,0.085 0.351,0.197c0.237,0.313 0.56,0.741 0.795,1.054c0.074,0.098 0.19,0.155 0.313,0.156c0.123,0.001 0.239,-0.056 0.314,-0.153c0.24,-0.31 0.569,-0.734 0.816,-1.041c0.084,-0.108 0.209,-0.177 0.346,-0.188c0.137,-0.012 0.273,0.034 0.374,0.126c0.234,0.237 0.445,0.518 0.632,0.834c-0.586,0.813 -1.03,1.859 -1.268,3.041Zm4.16,-7.52c1.015,0 1.838,0.91 1.838,2.03c0,1.122 -0.823,2.032 -1.838,2.032c-1.014,0 -1.838,-0.91 -1.838,-2.032c0,-1.12 0.824,-2.03 1.838,-2.03Zm5.492,-0.806c1.014,0 1.838,0.911 1.838,2.031c0,1.122 -0.824,2.032 -1.838,2.032c-1.015,0 -1.838,-0.91 -1.838,-2.032c0,-1.12 0.823,-2.031 1.838,-2.031Zm-10.868,0c-1.014,0 -1.838,0.911 -1.838,2.031c0,1.122 0.824,2.032 1.838,2.032c1.015,0 1.838,-0.91 1.838,-2.032c0,-1.12 -0.823,-2.031 -1.838,-2.031Z" style="fill:#fff;"/></svg>