<?xml version="1.0" encoding="UTF-8" standalone="no"?>
<!DOCTYPE svg PUBLIC "-//W3C//DTD SVG 1.1//EN" "http://www.w3.org/Graphics/SVG/1.1/DTD/svg11.dtd">
<svg width="100%" height="100%" viewBox="0 0 83 41" version="1.1" xmlns="http://www.w3.org/2000/svg" xmlns:xlink="http://www.w3.org/1999/xlink" xml:space="preserve" xmlns:serif="http://www.serif.com/" style="fill-rule:evenodd;clip-rule:evenodd;stroke-linejoin:round;stroke-miterlimit:1.41421;">
    <g id="logo" transform="matrix(0.830357,0,0,0.830357,-5,-2.5)">
        <rect id="container" x="0" y="0" width="112" height="56" style="fill:none;"/>
        <path id="hs_logo" d="M14.08,20.482C14.037,20.682 14.008,20.907 13.994,21.157C13.98,21.407 13.973,21.647 13.973,21.875L13.973,23.247C14.17,23.213 14.363,23.162 14.552,23.097C14.938,22.969 15.266,22.797 15.538,22.583C15.809,22.368 16.045,22.089 16.245,21.746C16.423,21.317 16.442,20.838 16.299,20.396C16.235,20.196 16.139,20.017 16.009,19.86C15.899,19.721 15.76,19.608 15.602,19.528C15.47,19.456 15.323,19.415 15.173,19.409L15.152,19.409C15.061,19.41 14.971,19.425 14.884,19.453C14.774,19.489 14.67,19.54 14.573,19.603C14.373,19.731 14.208,20.025 14.08,20.482M21.841,34.053C21.941,34.411 22.148,34.703 22.463,34.933L21.777,35.94C21.5,35.749 21.263,35.505 21.08,35.222C20.905,34.951 20.764,34.659 20.662,34.353C20.592,34.079 20.549,33.799 20.533,33.517C20.519,33.253 20.512,32.988 20.512,32.724L20.512,30.473C20.512,29.901 20.422,29.376 20.244,28.897C20.076,28.437 19.825,28.012 19.504,27.643C18.889,26.9 18.139,26.527 17.254,26.527C16.353,26.527 15.594,26.9 14.98,27.643C14.68,27.986 14.44,28.397 14.262,28.875C14.083,29.355 13.987,29.865 13.972,30.409L13.972,35.575L12.772,35.575L12.772,24.62C12.648,24.634 12.522,24.642 12.397,24.642L12,24.642L12,23.42L12.397,23.42C12.518,23.42 12.643,23.413 12.772,23.399L12.772,21.875C12.772,21.632 12.779,21.368 12.793,21.082C12.808,20.796 12.843,20.503 12.9,20.202C12.972,19.917 13.086,19.628 13.244,19.334C13.401,19.042 13.63,18.795 13.93,18.594C14.116,18.452 14.316,18.352 14.53,18.294C14.744,18.237 14.952,18.209 15.152,18.209C15.523,18.209 15.859,18.295 16.16,18.466C16.46,18.638 16.71,18.852 16.91,19.11C17.124,19.366 17.296,19.656 17.425,19.978C17.553,20.3 17.618,20.639 17.618,20.996C17.618,21.211 17.592,21.428 17.542,21.65C17.492,21.872 17.41,22.09 17.296,22.304C17.039,22.804 16.703,23.212 16.288,23.526C15.873,23.841 15.423,24.076 14.938,24.233C14.788,24.292 14.634,24.339 14.476,24.373C14.312,24.409 14.144,24.448 13.973,24.491L13.973,26.913C14.016,26.9 14.037,26.878 14.037,26.849C14.451,26.392 14.93,26.02 15.473,25.735C16.022,25.447 16.633,25.3 17.253,25.305C17.882,25.305 18.471,25.449 19.023,25.735C19.572,26.02 20.04,26.392 20.426,26.849C20.84,27.321 21.162,27.868 21.391,28.489C21.619,29.111 21.734,29.773 21.734,30.473L21.734,32.724C21.734,32.967 21.741,33.203 21.755,33.431C21.77,33.661 21.798,33.868 21.841,34.053ZM28.209,34.396C28.709,34.396 29.185,34.296 29.635,34.096C30.085,33.896 30.478,33.617 30.814,33.26C31.517,32.503 31.904,31.505 31.897,30.472C31.897,29.915 31.8,29.397 31.607,28.918C31.423,28.454 31.154,28.029 30.814,27.664C30.481,27.309 30.079,27.025 29.634,26.828C29.184,26.628 28.709,26.528 28.209,26.528C27.709,26.528 27.237,26.628 26.794,26.828C26.351,27.028 25.964,27.307 25.636,27.664C25.306,28.021 25.043,28.439 24.843,28.918C24.643,29.398 24.535,29.915 24.521,30.472C24.535,31.016 24.642,31.527 24.843,32.006C25.043,32.485 25.307,32.903 25.636,33.26C25.965,33.617 26.351,33.896 26.794,34.096C27.237,34.296 27.708,34.396 28.209,34.396ZM28.209,25.306C28.871,25.301 29.525,25.44 30.128,25.713C30.714,25.98 31.242,26.359 31.683,26.828C32.605,27.817 33.118,29.12 33.119,30.472C33.119,31.173 32.99,31.834 32.733,32.456C32.486,33.062 32.13,33.618 31.683,34.096C31.243,34.566 30.714,34.945 30.128,35.211C29.525,35.485 28.87,35.625 28.208,35.619C27.523,35.619 26.88,35.483 26.279,35.211C25.688,34.947 25.156,34.568 24.714,34.096C24.267,33.62 23.914,33.063 23.674,32.456C23.422,31.825 23.295,31.151 23.299,30.472C23.299,29.772 23.424,29.108 23.675,28.478C23.925,27.85 24.271,27.299 24.715,26.828C25.157,26.357 25.689,25.978 26.279,25.713C26.886,25.44 27.544,25.302 28.209,25.306ZM36.292,30.473C36.286,31.506 36.673,32.503 37.375,33.26C37.71,33.618 38.103,33.896 38.554,34.096C39.004,34.296 39.479,34.396 39.98,34.396C40.48,34.396 40.951,34.296 41.394,34.096C41.838,33.896 42.224,33.618 42.553,33.26C42.888,32.893 43.153,32.468 43.335,32.006C43.528,31.526 43.624,31.016 43.624,30.473C43.634,29.435 43.251,28.431 42.553,27.663C42.227,27.309 41.833,27.025 41.394,26.828C40.951,26.628 40.479,26.528 39.98,26.528C39.479,26.528 39.004,26.628 38.554,26.828C38.104,27.028 37.71,27.307 37.374,27.664C37.039,28.021 36.774,28.439 36.581,28.918C36.388,29.398 36.291,29.915 36.291,30.473L36.292,30.473ZM39.98,25.306C40.641,25.301 41.296,25.44 41.898,25.713C42.484,25.98 43.012,26.359 43.453,26.828C44.375,27.817 44.889,29.12 44.89,30.473C44.89,31.173 44.76,31.834 44.503,32.456C44.256,33.062 43.9,33.618 43.453,34.096C43.013,34.566 42.484,34.945 41.898,35.211C41.296,35.484 40.641,35.623 39.98,35.618C39.236,35.618 38.546,35.458 37.91,35.136C37.277,34.816 36.718,34.367 36.27,33.817L36.27,41L35.07,41L35.07,28.114C35.07,27.6 35.02,27.149 34.92,26.764C34.82,26.421 34.62,26.12 34.32,25.863L35.005,24.877C35.291,25.077 35.527,25.317 35.713,25.595C35.898,25.874 36.027,26.156 36.099,26.442C36.142,26.557 36.17,26.671 36.185,26.785L36.227,27.149C36.678,26.597 37.236,26.141 37.867,25.809C38.519,25.47 39.245,25.297 39.98,25.306ZM51.3,30.9C51.586,31.144 51.829,31.43 52.029,31.758C52.229,32.087 52.329,32.458 52.329,32.873C52.329,33.23 52.265,33.588 52.136,33.945C52.007,34.245 51.832,34.506 51.611,34.727C51.389,34.949 51.142,35.117 50.871,35.232C50.613,35.375 50.331,35.478 50.024,35.542C49.731,35.605 49.433,35.638 49.134,35.639C48.32,35.639 47.584,35.439 46.926,35.039C46.626,34.839 46.369,34.574 46.154,34.245C45.94,33.916 45.833,33.531 45.833,33.088L45.833,33.023L47.055,33.066L47.055,33.088C47.055,33.288 47.101,33.459 47.194,33.602C47.287,33.745 47.426,33.888 47.612,34.031C47.812,34.145 48.044,34.241 48.309,34.321C48.787,34.461 49.292,34.476 49.777,34.363C49.992,34.313 50.185,34.253 50.357,34.181C50.685,33.981 50.9,33.752 50.999,33.494C51.057,33.381 51.092,33.274 51.107,33.174C51.121,33.074 51.128,32.973 51.128,32.873C51.128,32.601 51.021,32.351 50.807,32.123C50.673,31.977 50.522,31.848 50.357,31.737C50.161,31.602 49.961,31.473 49.757,31.351C49.285,31.093 48.806,30.85 48.32,30.621C47.814,30.384 47.332,30.097 46.883,29.764C46.595,29.533 46.345,29.258 46.143,28.949C45.933,28.624 45.825,28.243 45.833,27.856C45.833,27.556 45.897,27.241 46.026,26.913C46.244,26.323 46.705,25.854 47.291,25.626C47.548,25.484 47.823,25.383 48.116,25.326C48.794,25.196 49.493,25.214 50.163,25.38C50.529,25.465 50.878,25.613 51.193,25.819C51.507,26.019 51.775,26.284 51.996,26.612C52.218,26.942 52.329,27.32 52.329,27.749L52.329,27.813L51.129,27.813L51.129,27.749C51.121,27.57 51.065,27.396 50.967,27.245C50.857,27.092 50.724,26.958 50.571,26.848C50.347,26.724 50.11,26.627 49.863,26.558C49.591,26.48 49.31,26.441 49.027,26.441C48.541,26.441 48.134,26.534 47.805,26.719C47.505,26.877 47.283,27.092 47.141,27.363C47.083,27.549 47.055,27.713 47.055,27.856C47.055,28.085 47.155,28.321 47.355,28.563C47.612,28.821 47.955,29.056 48.384,29.271C48.841,29.514 49.331,29.761 49.853,30.011C50.374,30.261 50.857,30.558 51.3,30.901L51.3,30.9ZM61.72,33.237L62.255,33.58C61.798,34.181 61.221,34.682 60.562,35.05C59.881,35.431 59.112,35.626 58.332,35.617C57.67,35.623 57.015,35.484 56.412,35.21C55.826,34.943 55.298,34.565 54.858,34.095C53.943,33.112 53.437,31.815 53.444,30.472C53.444,29.772 53.569,29.107 53.818,28.477C54.057,27.866 54.41,27.306 54.858,26.827C55.299,26.358 55.827,25.979 56.413,25.712C57.016,25.439 57.671,25.3 58.333,25.305C59.118,25.305 59.846,25.484 60.519,25.841C61.177,26.187 61.749,26.678 62.191,27.277L61.697,27.641L61.227,28.028C60.872,27.584 60.435,27.213 59.94,26.934C59.448,26.661 58.894,26.521 58.332,26.527C57.346,26.524 56.404,26.937 55.737,27.663C55.038,28.43 54.655,29.434 54.665,30.472C54.665,31.015 54.762,31.526 54.955,32.005C55.148,32.485 55.409,32.902 55.737,33.259C56.404,33.985 57.346,34.398 58.332,34.395C58.918,34.395 59.462,34.255 59.962,33.977C60.462,33.698 60.883,33.331 61.226,32.873L61.719,33.237L61.72,33.237ZM68.194,34.395C68.694,34.395 69.17,34.295 69.62,34.095C70.07,33.895 70.463,33.616 70.8,33.259C71.135,32.902 71.4,32.484 71.592,32.005C71.785,31.525 71.882,31.015 71.882,30.471C71.882,29.914 71.785,29.396 71.592,28.917C71.409,28.453 71.14,28.028 70.799,27.663C70.466,27.308 70.065,27.024 69.62,26.827C69.17,26.627 68.694,26.527 68.194,26.527C67.694,26.527 67.222,26.627 66.779,26.827C66.336,27.027 65.949,27.306 65.621,27.663C64.921,28.432 64.524,29.431 64.506,30.471C64.517,30.998 64.626,31.518 64.828,32.005C65.028,32.484 65.292,32.902 65.621,33.259C65.95,33.616 66.336,33.895 66.779,34.095C67.222,34.295 67.693,34.395 68.194,34.395ZM68.194,25.305C68.881,25.305 69.52,25.441 70.113,25.712C70.699,25.979 71.227,26.357 71.668,26.827C72.116,27.308 72.472,27.867 72.718,28.477C72.975,29.107 73.104,29.772 73.104,30.471C73.104,31.172 72.975,31.833 72.718,32.455C72.471,33.061 72.115,33.617 71.668,34.095C71.228,34.565 70.699,34.944 70.113,35.21C69.511,35.484 68.856,35.623 68.194,35.618C67.529,35.623 66.871,35.484 66.265,35.21C65.674,34.946 65.142,34.567 64.7,34.095C64.253,33.619 63.9,33.062 63.66,32.455C63.407,31.824 63.28,31.15 63.284,30.471C63.278,29.121 63.785,27.819 64.7,26.827C65.143,26.355 65.675,25.976 66.265,25.712C66.872,25.439 67.53,25.3 68.195,25.305L68.194,25.305ZM76.92,24.232L79.857,24.232L79.857,25.433L76.92,25.433L76.92,32.83C76.92,33.073 76.927,33.31 76.942,33.538C76.956,33.766 76.992,33.981 77.049,34.181C77.106,34.367 77.174,34.531 77.253,34.674C77.331,34.817 77.463,34.946 77.649,35.059L76.985,36.089C76.693,35.897 76.441,35.65 76.245,35.36C76.065,35.089 75.935,34.81 75.848,34.524C75.777,34.24 75.734,33.949 75.72,33.656C75.706,33.381 75.698,33.105 75.698,32.83L75.698,25.433L73.812,25.433L73.812,24.233L75.698,24.233L75.698,21.017L76.92,21.017L76.92,24.232ZM87.125,33.237L87.661,33.58C87.204,34.181 86.627,34.682 85.968,35.05C85.287,35.431 84.518,35.626 83.738,35.617C83.076,35.623 82.421,35.484 81.819,35.21C81.233,34.944 80.704,34.565 80.264,34.095C79.349,33.112 78.843,31.815 78.85,30.472C78.85,29.772 78.975,29.107 79.224,28.477C79.463,27.866 79.816,27.306 80.264,26.827C80.705,26.358 81.233,25.979 81.819,25.712C82.422,25.438 83.077,25.3 83.739,25.305C84.524,25.305 85.252,25.484 85.925,25.841C86.584,26.188 87.156,26.678 87.598,27.277L87.103,27.641L86.633,28.028C86.278,27.584 85.841,27.213 85.346,26.934C84.854,26.661 84.3,26.521 83.738,26.527C83.238,26.527 82.762,26.627 82.312,26.827C81.862,27.027 81.472,27.306 81.143,27.663C80.445,28.431 80.062,29.434 80.072,30.472C80.067,31.502 80.449,32.498 81.143,33.259C81.472,33.616 81.862,33.895 82.312,34.095C82.762,34.295 83.237,34.395 83.738,34.395C84.324,34.395 84.868,34.255 85.368,33.977C85.868,33.698 86.289,33.331 86.632,32.873L87.125,33.237ZM90.835,20.481C90.792,20.681 90.763,20.906 90.749,21.156C90.734,21.406 90.727,21.646 90.727,21.874L90.727,23.247C90.955,23.204 91.149,23.154 91.307,23.097C91.692,22.969 92.02,22.797 92.293,22.583C92.563,22.368 92.799,22.089 93,21.746C93.179,21.317 93.198,20.838 93.054,20.396C92.992,20.201 92.894,20.019 92.764,19.86C92.654,19.721 92.515,19.608 92.357,19.528C92.225,19.456 92.078,19.415 91.927,19.409L91.907,19.409C91.816,19.41 91.725,19.425 91.638,19.453C91.529,19.49 91.424,19.54 91.328,19.603C91.128,19.731 90.963,20.025 90.834,20.482L90.835,20.481ZM98.596,34.052C98.696,34.41 98.903,34.702 99.217,34.932L98.532,35.939C98.254,35.748 98.017,35.504 97.835,35.221C97.659,34.95 97.519,34.658 97.417,34.352C97.346,34.078 97.303,33.798 97.287,33.516C97.273,33.252 97.267,32.987 97.267,32.723L97.267,30.473C97.267,29.901 97.177,29.376 96.999,28.897C96.831,28.437 96.58,28.013 96.259,27.643C95.644,26.9 94.894,26.527 94.008,26.527C93.107,26.527 92.348,26.9 91.735,27.643C91.435,27.986 91.195,28.397 91.016,28.875C90.838,29.355 90.741,29.865 90.727,30.409L90.727,35.575L89.527,35.575L89.527,24.62C89.403,24.634 89.277,24.642 89.152,24.642L88.754,24.642L88.754,23.42L89.152,23.42C89.272,23.42 89.398,23.413 89.527,23.399L89.527,21.875C89.527,21.632 89.533,21.368 89.547,21.082C89.562,20.796 89.598,20.503 89.655,20.202C89.727,19.917 89.841,19.628 89.998,19.334C90.156,19.042 90.384,18.795 90.685,18.594C90.87,18.452 91.071,18.352 91.285,18.294C91.499,18.237 91.706,18.209 91.907,18.209C92.278,18.209 92.614,18.295 92.914,18.466C93.214,18.638 93.464,18.852 93.664,19.11C93.879,19.366 94.05,19.656 94.179,19.978C94.308,20.3 94.372,20.639 94.372,20.996C94.372,21.211 94.347,21.428 94.297,21.65C94.247,21.872 94.165,22.09 94.05,22.304C93.794,22.804 93.457,23.212 93.042,23.526C92.635,23.837 92.179,24.076 91.692,24.233C91.542,24.292 91.388,24.339 91.231,24.373C91.067,24.409 90.899,24.448 90.727,24.491L90.727,26.913C90.77,26.9 90.792,26.878 90.792,26.849C91.206,26.392 91.684,26.02 92.228,25.735C92.777,25.447 93.388,25.299 94.008,25.305C94.636,25.305 95.226,25.449 95.776,25.735C96.313,26.01 96.791,26.389 97.181,26.849C97.595,27.321 97.917,27.868 98.146,28.489C98.374,29.111 98.489,29.773 98.489,30.473L98.489,32.724C98.489,32.967 98.495,33.203 98.509,33.431C98.524,33.661 98.553,33.868 98.596,34.053L98.596,34.052ZM35.39,21.662L34.952,21.182C34.962,21.172 35.218,20.94 35.675,20.571L36.084,21.076C35.644,21.432 35.393,21.66 35.39,21.662ZM91.496,14.989C91.496,14.984 91.49,14.637 91.455,14.079L92.103,14.037C92.141,14.619 92.146,14.979 92.146,14.979L91.496,14.989ZM88.734,5.97C88.282,5.684 87.765,5.598 87.221,5.678L87.126,5.035C87.824,4.931 88.498,5.051 89.082,5.421L88.734,5.971L88.734,5.97ZM84.299,7.37L83.853,6.896C84.357,6.421 84.853,6.031 85.329,5.736L85.671,6.289C85.233,6.561 84.771,6.924 84.299,7.369L84.299,7.37ZM90.535,8.79C90.357,8.234 90.122,7.699 89.833,7.192L90.393,6.862C90.676,7.342 90.932,7.922 91.151,8.585L90.535,8.789L90.535,8.79ZM81.97,10.077L81.447,9.69C81.845,9.151 82.217,8.678 82.585,8.246L83.081,8.666C82.723,9.088 82.359,9.55 81.97,10.077ZM91.282,12.276C91.207,11.683 91.11,11.094 90.989,10.509L91.625,10.376C91.744,10.943 91.845,11.554 91.927,12.193L91.282,12.276ZM79.936,13.064L79.389,12.713C79.717,12.201 80.052,11.692 80.392,11.187L80.93,11.551C80.586,12.061 80.254,12.57 79.936,13.064ZM71.059,13.183C70.513,13 69.946,12.892 69.371,12.863L69.408,12.215C70.041,12.248 70.667,12.366 71.268,12.568L71.058,13.183L71.059,13.183ZM66.113,13.753L65.783,13.192C66.324,12.866 66.903,12.607 67.506,12.42L67.691,13.043C67.138,13.215 66.608,13.453 66.113,13.753ZM73.83,15.166C73.461,14.719 73.039,14.318 72.573,13.973L72.956,13.448C73.438,13.8 73.886,14.225 74.326,14.748L73.83,15.166ZM63.33,15.952L62.877,15.486C63.349,15.03 63.813,14.616 64.257,14.259L64.665,14.765C64.236,15.111 63.787,15.51 63.33,15.952ZM77.956,16.128L77.421,15.76C77.736,15.302 78.083,14.762 78.411,14.248L78.96,14.597C78.628,15.117 78.277,15.662 77.956,16.128ZM49.096,16.35C48.515,16.262 47.928,16.218 47.34,16.22L47.34,15.57C47.98,15.57 48.605,15.616 49.196,15.708L49.096,16.35ZM43.86,16.755L43.673,16.133C44.266,15.954 44.871,15.814 45.483,15.715L45.584,16.357C45.001,16.452 44.425,16.585 43.86,16.755ZM52.366,17.522C51.869,17.219 51.341,16.969 50.792,16.775L51.009,16.162C51.601,16.371 52.169,16.641 52.705,16.967L52.366,17.522ZM76.273,17.735C75.742,17.735 75.352,17.244 74.896,16.602L75.426,16.226C75.639,16.526 76.035,17.083 76.266,17.085C76.263,17.085 76.328,17.039 76.38,17.006L76.85,17.434C76.71,17.574 76.544,17.735 76.273,17.735ZM40.568,18.118L40.267,17.542C40.811,17.257 41.367,16.996 41.934,16.758L42.184,17.358C41.656,17.578 41.111,17.834 40.568,18.118ZM60.903,18.608L60.403,18.194C60.819,17.692 61.212,17.238 61.603,16.809L62.083,17.246C61.7,17.668 61.313,18.114 60.903,18.609L60.903,18.608ZM54.926,19.886C54.575,19.416 54.184,18.979 53.756,18.578L54.198,18.101C54.637,18.511 55.056,18.979 55.445,19.495L54.926,19.885L54.926,19.886ZM37.513,19.995L37.138,19.464C37.638,19.11 38.148,18.773 38.669,18.451L39.01,19.005C38.509,19.314 38.005,19.647 37.513,19.995ZM58.741,21.378L58.226,20.981L58.433,20.688C58.683,20.36 58.96,20 59.258,19.618L59.77,20.018C59.474,20.398 59.199,20.758 58.949,21.083L58.741,21.378ZM57.17,22.96C56.8,22.96 56.58,22.578 56.151,21.817C56.073,21.68 55.989,21.531 55.898,21.374L56.46,21.047C56.553,21.207 56.638,21.358 56.717,21.497C56.919,21.856 57.149,22.261 57.247,22.328C57.28,22.293 57.316,22.259 57.353,22.228C57.39,22.197 57.745,22.518 57.726,22.526C57.726,22.526 57.539,22.96 57.17,22.96Z" style="fill:rgb(254,254,254);"/>
    </g>
</svg>
