<?xml version="1.0" encoding="UTF-8"?>
<svg width="26px" height="32px" viewBox="0 0 26 32" version="1.1" xmlns="http://www.w3.org/2000/svg" xmlns:xlink="http://www.w3.org/1999/xlink">
    <!-- Generator: sketchtool 54.1 (76490) - https://sketchapp.com -->
    <title>725375EB-6148-4060-B274-BE512E3D28C9</title>
    <desc>Created with sketchtool.</desc>
    <g id="Home-&amp;-brand-page" stroke="none" stroke-width="1" fill="none" fill-rule="evenodd">
        <g id="Brand-Page-(Updated)" transform="translate(-962.000000, -2099.000000)" fill="#FFFFFF" fill-rule="nonzero">
            <g id="Group-57" transform="translate(155.000000, 1740.000000)">
                <g id="Group-53" transform="translate(670.000000, 344.000000)">
                    <g id="Group-52" transform="translate(119.000000, 0.000000)">
                        <g id="noun_Light-Bulb_43300-Copy-5" transform="translate(18.000000, 15.000000)">
                            <path d="M19.2279698,6.80324565 C17.5085495,5.04540716 15.2546865,4.16613149 13.0004749,4.16613149 C10.7462633,4.16613149 8.49274896,5.04540716 6.77367729,6.80288924 C3.33309358,10.3189226 3.33309358,16.0201361 6.77367729,19.5347438 C8.21350005,21.0074503 9.05020092,22.8625901 9.28482579,24.7793897 C9.33049571,25.1514869 9.7261855,25.9006711 10.4140233,25.9006711 C10.6807217,25.9006711 15.3205767,25.9006711 15.5872751,25.9006711 C16.275113,25.9006711 16.6704541,25.1511305 16.716124,24.7793897 C16.9510975,22.8625901 17.7871012,21.0074503 19.2279698,19.5358131 C22.6675076,16.0204925 22.6675076,10.3189226 19.2279698,6.80324565 Z M8.56561166,8.64519807 C7.50683643,9.79998249 6.92428345,11.3090434 6.92428345,12.8933078 C6.92428345,13.1852116 6.69209896,13.4222275 6.40622616,13.4222275 C6.12035336,13.4222275 5.88851749,13.1852116 5.88851749,12.8933078 C5.88851749,11.0388808 6.57077733,9.2732012 7.8101405,7.92131933 C8.00571933,7.70747036 8.3337758,7.69749074 8.54225376,7.89708311 C8.75108036,8.09703189 8.76084187,8.43206194 8.56561166,8.64519807 Z M16.6777753,27.0750583 C16.6083988,26.7018919 16.2880121,26.4310165 15.9142857,26.4310165 L10.0713246,26.4310165 C9.64286404,26.4310165 9.2959818,26.7863622 9.2959818,27.2243962 C9.2959818,27.6638558 9.64321266,28.0188451 10.0713246,28.0188451 L11.8583782,28.0188451 L9.78475456,28.8617664 C9.43856957,29.0029067 9.23880724,29.3746475 9.30818369,29.7492396 C9.37930326,30.1220497 9.69899272,30.3932814 10.070976,30.3932814 L15.9135885,30.3932814 C16.342049,30.3932814 16.6906744,30.0372229 16.6906744,29.6002582 C16.6906744,29.161155 16.342049,28.8050965 15.9135885,28.8050965 L14.1272321,28.8050965 L16.2012044,27.9628879 C16.547738,27.8224605 16.7475003,27.4496504 16.6777753,27.0750583 Z M10.945677,30.9410912 C10.945677,31.5231168 11.4117891,32 11.9810944,32 L14.0202041,32 C14.5895093,32 15.0552728,31.5231168 15.0552728,30.9410912 L15.0552728,30.9086574 L10.945677,30.9086574 L10.945677,30.9410912 Z M23.0541332,10.981498 C22.861692,10.981498 22.6856361,10.8499809 22.633691,10.6511014 C22.571287,10.4133726 22.7096913,10.168872 22.9418758,10.1054301 L25.4516298,9.41754925 C25.6838143,9.35517664 25.9236685,9.4948913 25.9850266,9.73262006 C26.0474305,9.97034883 25.9090263,10.2148495 25.6768418,10.2782913 L23.1670878,10.9661722 C23.1297849,10.9765082 23.0914361,10.981498 23.0541332,10.981498 Z M2.94646805,10.981498 C2.90916514,10.981498 2.87116497,10.9765082 2.83316481,10.9661722 L0.323062186,10.2782913 C0.0905290688,10.2144931 -0.0471779499,9.97034883 0.0148773648,9.73262006 C0.0772813049,9.4948913 0.317484181,9.35553305 0.548622797,9.41754925 L3.05872542,10.1054301 C3.29125853,10.1692284 3.42896555,10.4133726 3.36691024,10.6511014 C3.31496506,10.8503373 3.13890925,10.981498 2.94646805,10.981498 Z M5.6068282,6.1770246 C5.49526808,6.1770246 5.38370797,6.13354198 5.29864338,6.04657673 L3.49485575,4.20248582 C3.32472657,4.02855533 3.32472657,3.74663111 3.49485575,3.5723442 C3.66498492,3.39805729 3.94074759,3.39841371 4.11122539,3.5723442 L5.91501302,5.41643511 C6.0851422,5.5903656 6.0851422,5.87228982 5.91501302,6.04657673 C5.82959981,6.13354198 5.71803969,6.1770246 5.6068282,6.1770246 Z M10.2846833,3.3766724 C10.0922421,3.3766724 9.91618632,3.24515528 9.86389252,3.04627574 L9.21231171,0.560637937 C9.14990777,0.32290917 9.28796342,0.0784085198 9.52049653,0.0149666601 C9.75302965,-0.0477623698 9.99183803,0.0923087026 10.054242,0.330037469 L10.7058228,2.81567528 C10.7682267,3.05340404 10.6301711,3.29790469 10.3976379,3.36134655 C10.3599864,3.37168259 10.3219862,3.3766724 10.2846833,3.3766724 Z M15.7155692,3.37631598 C15.678615,3.37631598 15.6402662,3.37132617 15.6026146,3.36099014 C15.3700815,3.29719186 15.2323745,3.05304763 15.2944298,2.81531886 L15.9453134,0.330037469 C16.0080659,0.0923087026 16.2468743,-0.0477623698 16.4790588,0.0149666601 C16.7112433,0.0787649348 16.8492989,0.32290917 16.786895,0.560637937 L16.1360114,3.04591933 C16.0844149,3.24515528 15.9080105,3.37631598 15.7155692,3.37631598 Z M20.393773,6.17666818 C20.2822129,6.17666818 20.1703041,6.13318556 20.0852396,6.04622031 C19.915459,5.87228982 19.915459,5.59000919 20.0852396,5.4160787 L21.8897244,3.57198778 C22.0598536,3.39770088 22.3356163,3.39841371 22.5060941,3.57198778 C22.6762233,3.74591828 22.6762233,4.02819891 22.5060941,4.2021294 L20.7019578,6.04622031 C20.6172419,6.13318556 20.5053331,6.17666818 20.393773,6.17666818 Z" id="Lightbulb"></path>
                        </g>
                    </g>
                </g>
            </g>
        </g>
    </g>
</svg>