<?xml version="1.0" encoding="UTF-8"?>
<svg width="27px" height="32px" viewBox="0 0 27 32" version="1.1" xmlns="http://www.w3.org/2000/svg" xmlns:xlink="http://www.w3.org/1999/xlink">
    <!-- Generator: sketchtool 54.1 (76490) - https://sketchapp.com -->
    <title>576E35EF-78D4-42BC-B802-926CD9410522</title>
    <desc>Created with sketchtool.</desc>
    <g id="Home-&amp;-brand-page" stroke="none" stroke-width="1" fill="none" fill-rule="evenodd">
        <g id="Brand-Page-(Updated)" transform="translate(-961.000000, -1901.000000)" fill="#FFFFFF" fill-rule="nonzero">
            <g id="Group-57" transform="translate(155.000000, 1740.000000)">
                <g id="Group-45" transform="translate(669.000000, 146.000000)">
                    <g id="Group-44" transform="translate(50.000000, 0.000000)">
                        <g id="Group-42" transform="translate(69.000000, 0.000000)">
                            <g id="Reviwes-icon" transform="translate(18.000000, 15.000000)">
                                <path d="M9.32791894,3.36732324 L7.09243804,3.18593526 C6.83695451,3.15570394 6.61340642,3.00454729 6.51760009,2.79292799 L5.65534318,0.85812294 C5.39985964,0.31395902 4.60147361,0.31395902 4.34599008,0.85812294 L3.48373316,2.79292799 C3.38792683,3.03477862 3.16437874,3.18593526 2.87695977,3.18593526 L0.641478872,3.36732324 C0.0347054852,3.4277859 -0.220778046,4.15333779 0.226318134,4.54634506 L1.91889653,5.93698619 C2.11050918,6.08814284 2.2063155,6.3602248 2.14244462,6.60207543 L1.63147756,8.65780579 C1.56760667,9.20196971 2.2063155,9.65543965 2.74921801,9.35312636 L4.66534449,8.26479852 C4.88889258,8.1438732 5.17631155,8.1438732 5.39985964,8.26479852 L7.31598613,9.35312636 C7.85888863,9.65543965 8.49759746,9.20196971 8.3698557,8.62757446 L7.85888863,6.5718441 C7.79501775,6.32999347 7.89082407,6.08814284 8.08243672,5.90675486 L9.77501512,4.51611374 C10.2221113,4.15333779 9.96662777,3.4277859 9.32791894,3.36732324 Z" id="Path"></path>
                                <path d="M14.9781776,5.46881454 C15.1693467,5.61947059 15.2649312,5.89065147 15.2012082,6.13170115 L14.691424,8.1806234 C14.5321164,8.75311638 15.2012082,9.20508453 15.742854,8.90377243 L17.6545449,7.81904889 C17.8775755,7.69852405 18.1643291,7.69852405 18.3873597,7.81904889 L20.2990507,8.90377243 C20.8406964,9.20508453 21.4779268,8.75311638 21.3504807,8.1806234 L20.8406964,6.13170115 C20.7769734,5.89065147 20.872558,5.6496018 21.063727,5.46881454 L22.7523874,4.0827789 C23.2303101,3.69107317 22.975418,2.96792414 22.3381877,2.90766172 L20.1078816,2.72687447 C19.8529895,2.69674326 19.6299589,2.54608721 19.5025128,2.33516874 L18.6422519,0.406771329 C18.3873597,-0.135590443 17.5908219,-0.135590443 17.3359297,0.406771329 L16.4756688,2.33516874 C16.3800843,2.57621842 16.1570537,2.72687447 15.8703,2.72687447 L13.6399939,2.90766172 C13.0346251,2.96792414 12.779733,3.69107317 13.2257942,4.0827789 L14.9781776,5.46881454 Z" id="Path"></path>
                                <path d="M9.34383641,14.6807352 L7.10454081,14.4798605 C6.84862131,14.4463814 6.62469175,14.2789858 6.52872194,14.0446319 L5.66499364,11.9019681 C5.40907414,11.299344 4.60932572,11.299344 4.35340622,11.9019681 L3.48967792,14.0446319 C3.39370811,14.3124649 3.16977855,14.4798605 2.88186911,14.4798605 L0.642573513,14.6807352 C0.0347647078,14.7476935 -0.221154789,15.5511924 0.226704331,15.986421 L1.922171,17.5264606 C2.11411062,17.6938562 2.21008043,17.9951683 2.14610056,18.2630013 L1.63426156,20.5395816 C1.47431188,21.1756849 2.14610056,21.6778717 2.68992949,21.3430805 L4.60932572,20.1378321 C4.83325528,20.0039156 5.12116471,20.0039156 5.34509427,20.1378321 L7.2644905,21.3430805 C7.80831943,21.6778717 8.44811817,21.1756849 8.32015842,20.5395816 L7.80831943,18.2630013 C7.74433955,17.9951683 7.84030937,17.7273353 8.03224899,17.5264606 L9.72771566,15.986421 C10.2395546,15.5511924 9.98363515,14.7476935 9.34383641,14.6807352 Z" id="Path"></path>
                                <path d="M26.8999028,21.9011149 C26.8999028,21.0211835 26.1658566,20.3367925 25.2983475,20.3367925 C24.73113,20.3367925 24.230644,20.6301029 23.9303523,21.0863636 L23.9303523,21.0537736 C23.9303523,20.1738422 23.1963062,19.4894511 22.328797,19.4894511 C21.7615795,19.4894511 21.2610935,19.7827616 20.9608019,20.2390223 L20.9608019,20.2064322 C20.9608019,19.3265009 20.2267557,18.6421098 19.3592466,18.6421098 C18.7920291,18.6421098 18.291543,18.9354202 17.9912514,19.391681 L17.9912514,14.0143225 C17.9912514,13.5906518 17.8244227,13.1995712 17.5241311,12.9062607 C17.2238395,12.6129503 16.8234507,12.45 16.3896961,12.45 C16.3896961,12.45 16.3896961,12.45 16.3896961,12.45 C15.4888213,12.45 14.7881408,13.1669811 14.7881408,14.0143225 L14.7881408,23.7587479 C14.7881408,23.856518 14.7214093,23.9216981 14.6546779,23.9542882 C14.5545807,23.9868782 14.4878492,23.9868782 14.4211177,23.9216981 L12.7861967,22.3247856 C12.2189792,21.8033448 11.3514701,21.7055746 10.7175211,22.1292453 C10.350498,22.3899657 10.0835721,22.7810463 10.0168406,23.237307 C9.95010918,23.6935678 10.0835721,24.1498285 10.3838637,24.475729 L14.4544835,29.2990566 C15.6222842,30.6678388 17.3239367,31.45 19.1256864,31.45 L21.6614823,31.45 C23.096209,31.45 24.4308384,30.8959691 25.4318104,29.9182676 C26.4327825,28.940566 27,27.636964 27,26.2355918 L26.8999028,21.9011149 Z" id="Path"></path>
                            </g>
                        </g>
                    </g>
                </g>
            </g>
        </g>
    </g>
</svg>