<?xml version="1.0" encoding="UTF-8"?>
<svg width="35px" height="39px" viewBox="0 0 35 39" version="1.1" xmlns="http://www.w3.org/2000/svg" xmlns:xlink="http://www.w3.org/1999/xlink">
    <!-- Generator: sketchtool 54.1 (76490) - https://sketchapp.com -->
    <title>224F9C45-D6C5-4AED-80DA-A336D59FEDE4</title>
    <desc>Created with sketchtool.</desc>
    <g id="Home-&amp;-brand-page" stroke="none" stroke-width="1" fill="none" fill-rule="evenodd">
        <g id="Brand-Page-(Updated)" transform="translate(-288.000000, -2096.000000)" fill="#FFFFFF" fill-rule="nonzero">
            <g id="Group-57" transform="translate(155.000000, 1740.000000)">
                <g id="Group-49" transform="translate(0.000000, 344.000000)">
                    <g id="Group-48" transform="translate(119.000000, 0.000000)">
                        <g id="Group-47">
                            <g id="Women-icon" transform="translate(14.000000, 12.000000)">
                                <path d="M34.1321676,38.5846745 C33.818652,36.9209 33.0177942,28.9370933 32.8752871,28.4859002 C32.0202447,25.9761388 29.7401317,24.9327549 27.4315172,24.0585683 C25.6359282,23.3817787 23.8688406,22.6767896 22.0732515,22 L17,27.0195228 L11.9267485,22 C10.1311594,22.6767896 8.36407182,23.3817787 6.5684828,24.0585683 C4.25986833,24.9609544 1.97975528,25.9761388 1.12471289,28.4859002 C0.982205825,28.9370933 0.326673323,32.4902386 0.0131577789,34.154013 C-0.0723464605,34.5770065 0.269670497,35 0.725693107,35 L9.78504635,37.4445692 C14.6041843,38.7449618 19.6833362,38.7334651 24.4965379,37.4112696 L33.2743069,35 C33.7303295,34.9718004 34.2176718,39.0076679 34.1321676,38.5846745 Z" id="Path"></path>
                                <path d="M26.8658258,17.6745529 C24.701075,18.3087412 22.5085711,18.7499157 20.3438203,18.9980764 C20.1217946,19.0256498 20.0107817,18.7499157 20.2050542,18.6120487 C21.7592342,17.4815391 22.75835,15.6892677 22.75835,13.6488357 L22.75835,8.46503548 L21.8424939,8.21687483 C20.9266378,7.96871418 20.0385349,7.61025991 19.1781852,7.14151201 L18.5676145,6.81063115 L17.9570438,7.16908542 C15.7367866,8.43746207 13.599789,9.0992238 11.4350383,9.20951742 L10.24165,9.29223764 L10.24165,13.6488357 C10.24165,15.5238273 11.1575061,17.4263922 12.7949458,18.6120487 C12.9614651,18.7499157 12.8782054,19.0256498 12.6561797,18.9980764 C10.4914289,18.7499157 8.29892496,18.3087412 6.13417419,17.6745529 C5.27382453,17.4263922 4.80201987,16.5164699 5.07955202,15.6892677 L8.43769104,5.79041515 C9.54781964,2.31616606 12.822699,0 16.4861234,0 C17.0689409,0 17.6517584,0.0827202164 18.1790695,0.275734055 C18.7063806,0.468747893 19.150432,0.827202164 19.5944835,1.18565643 C20.0940413,1.13050962 20.565846,1.07536281 21.0376507,1.32352346 C22.7028436,2.20587244 23.9794914,4.0257172 24.562309,5.79041515 C24.562309,5.79041515 27.920448,15.6892677 27.920448,15.6892677 C28.1979801,16.5164699 27.7261755,17.4263922 26.8658258,17.6745529 Z" id="Path"></path>
                            </g>
                        </g>
                    </g>
                </g>
            </g>
        </g>
    </g>
</svg>