<?xml version="1.0" encoding="UTF-8"?>
<svg width="20px" height="20px" viewBox="0 0 20 20" version="1.1" xmlns="http://www.w3.org/2000/svg" xmlns:xlink="http://www.w3.org/1999/xlink">
    <!-- Generator: Sketch 64 (93537) - https://sketch.com -->
    <title>Group 4</title>
    <desc>Created with Sketch.</desc>
    <defs>
        <rect id="path-1" x="0" y="0" width="20" height="20" rx="10"></rect>
    </defs>
    <g id="Global-Landing-Page-(Draft-3)---In-progress-Copy" stroke="none" stroke-width="1" fill="none" fill-rule="evenodd">
        <g id="D|-Global-Landing-Page---V2" transform="translate(-405.000000, -4594.000000)">
            <g id="Group-14" transform="translate(155.000000, 4564.000000)">
                <g id="India@2x" transform="translate(250.000000, 30.000000)">
                    <g id="Group-4" transform="translate(0.000000, 0.000000)">
                        <mask id="mask-2" fill="white">
                            <use xlink:href="#path-1"></use>
                        </mask>
                        <use id="Mask" fill="#D8D8D8" xlink:href="#path-1"></use>
                        <g id="India@2x" mask="url(#mask-2)">
                            <g transform="translate(-5.000000, -2.318182)">
                                <g id="Hungary-4" stroke-width="1" fill="none" fill-rule="evenodd">
                                    <g id="Bolivia-14" fill-rule="nonzero">
                                        <path d="M0.32625587,4.14777963 L0.32625587,8.85598702 L29.9858804,8.85598702 L29.9858804,4.14777963 C29.9858804,2.22935736 28.7262661,0.67416884 27.1724532,0.67416884 L3.13968312,0.67416884 C2.39351582,0.67416884 1.67790959,1.0401375 1.15028963,1.69156588 C0.622669676,2.34299427 0.32625587,3.22652077 0.32625587,4.14777963 Z" id="Shape" fill="#FC6E51"></path>
                                        <polygon id="Shape" fill="#FFFFFF" points="0.32625587 15.5082171 29.9858804 15.5082171 29.9858804 8.86869829 0.32625587 8.86869829"></polygon>
                                        <path d="M0.32625587,19.8489685 C0.32625587,21.6159394 1.58587015,23.0483524 3.13968312,23.0483524 L27.1724532,23.0483524 C28.7262661,23.0483524 29.9858804,21.6159394 29.9858804,19.8489685 L29.9858804,15.5124542 L0.32625587,15.5124542 L0.32625587,19.8489685 Z" id="Shape" fill="#57A863"></path>
                                    </g>
                                </g>
                                <path d="M17.6559508,12.0253298 L17.4907043,11.7414448 C17.4351257,11.6336366 17.4033376,11.5151537 17.3974884,11.3940035 L17.3974884,11.0635105 C17.3915859,10.9499223 17.3317498,10.8459964 17.236479,10.7838626 L16.9610682,10.6270903 C16.8584271,10.5623688 16.7715643,10.475506 16.7068428,10.372865 L16.5458334,10.0974542 C16.4836997,10.0021834 16.3797738,9.94234725 16.2661855,9.93644477 L15.9356926,9.93644477 C15.8145424,9.93059556 15.6960594,9.89880747 15.5882513,9.84322881 L15.3043663,9.68221942 C15.2031644,9.63088446 15.0835494,9.63088446 14.9823475,9.68221942 L14.7069367,9.84322881 C14.5994775,9.89970442 14.4807925,9.93154674 14.3594954,9.93644477 L14.0417137,9.93644477 C13.9281255,9.94234725 13.8241995,10.0021834 13.7620658,10.0974542 L13.5968193,10.3813391 C13.5319859,10.4838908 13.4451456,10.5707311 13.342594,10.6355645 L13.058709,10.800811 C12.9634382,10.8629447 12.9036021,10.9668706 12.8976996,11.0804589 L12.8976996,11.3982406 C12.8928016,11.5195377 12.8609593,11.6382227 12.8044836,11.7456819 L12.6434742,12.0210927 C12.592815,12.1224551 12.592815,12.2417491 12.6434742,12.3431115 L12.8087207,12.6269964 C12.8642994,12.7348046 12.8960875,12.8532875 12.9019367,12.9744377 L12.9019367,13.3049307 C12.9078392,13.4185189 12.9676753,13.5224449 13.0629461,13.5845786 L13.3383569,13.7413509 C13.4410884,13.8059591 13.527974,13.8928448 13.5925822,13.9955763 L13.7535916,14.2709871 C13.8157254,14.3662578 13.9196513,14.426094 14.0332395,14.4319964 L14.3637325,14.4319964 C14.4848827,14.4378457 14.6033656,14.4696337 14.7111738,14.5252124 L14.9950588,14.6862218 C15.0962606,14.7375568 15.2158757,14.7375568 15.3170775,14.6862218 L15.5924883,14.5252124 C15.6998423,14.4684682 15.8185893,14.4366092 15.9399297,14.4319964 L16.2577114,14.4319964 C16.3712996,14.426094 16.4752255,14.3662578 16.5373592,14.2709871 L16.7026057,13.9871021 C16.7681887,13.8851523 16.8548813,13.7984597 16.9568311,13.7328767 L17.2407161,13.5676302 C17.3359868,13.5054965 17.395823,13.4015706 17.4017254,13.2879824 L17.4017254,12.9702007 C17.4066235,12.8489036 17.4384658,12.7302185 17.4949414,12.6227593 L17.6559508,12.3473485 C17.7072858,12.2461467 17.7072858,12.1265316 17.6559508,12.0253298 Z M16.6644719,12.2837922 L16.5670189,12.4490387 C16.5331017,12.5146703 16.5142823,12.5870529 16.5119367,12.6608931 L16.5119367,12.8346138 C16.5083269,12.9034132 16.4721279,12.9663679 16.4144837,13.0040974 L16.240763,13.1057875 C16.1793378,13.1448197 16.1272599,13.1968975 16.0882278,13.2583227 L15.9907747,13.4320434 C15.9530452,13.4896877 15.8900905,13.5258866 15.8212912,13.5294964 L15.6263851,13.5294964 C15.5539854,13.5324632 15.4831162,13.5512652 15.4187677,13.5845786 L15.2535212,13.6820316 C15.1924095,13.7136915 15.1197268,13.7136915 15.0586151,13.6820316 L14.8848944,13.5845786 C14.8192119,13.5507946 14.7468599,13.5319831 14.67304,13.5294964 L14.4738968,13.5294964 C14.4050974,13.5258866 14.3421427,13.4896877 14.3044132,13.4320434 L14.2069602,13.2667969 C14.167928,13.2053717 14.1158502,13.1532938 14.054425,13.1142617 L13.8934156,13.0168086 C13.8357713,12.9790791 13.7995723,12.9161244 13.7959625,12.8473251 L13.7959625,12.6481819 C13.7927272,12.5758231 13.7739402,12.5050107 13.7408804,12.4405645 L13.6434273,12.2668438 C13.6124639,12.2055644 13.6124639,12.1332172 13.6434273,12.0719377 L13.7408804,11.9066913 C13.774933,11.8411115 13.7937606,11.7686977 13.7959625,11.6948368 L13.7959625,11.5041678 C13.7995723,11.4353684 13.8357713,11.3724137 13.8934156,11.3346842 L14.0671362,11.2329941 C14.1285614,11.1939619 14.1806393,11.1418841 14.2196714,11.0804589 L14.3171245,10.9067382 C14.354854,10.8490939 14.4178087,10.8128949 14.4866081,10.8092852 L14.6815142,10.8092852 C14.7539139,10.8063184 14.824783,10.7875164 14.8891315,10.754203 L15.054378,10.6567499 C15.1156575,10.6257866 15.1880046,10.6257866 15.2492841,10.6567499 L15.4230048,10.754203 C15.4886364,10.7881201 15.561019,10.8069396 15.6348592,10.8092852 L15.8340024,10.8092852 C15.9028018,10.8128949 15.9657565,10.8490939 16.003486,10.9067382 L16.1009391,11.0719847 C16.1399712,11.1334099 16.1920491,11.1854877 16.2534743,11.2245199 L16.4229578,11.321973 C16.4806021,11.3597025 16.5168011,11.4226572 16.5204109,11.4914565 L16.5204109,11.6905997 C16.5235131,11.7629788 16.5423075,11.8338193 16.575493,11.8982171 L16.6729461,12.0719377 C16.7039095,12.1332172 16.7039095,12.2055644 16.6729461,12.2668438 L16.6644719,12.2837922 Z" id="Shape" fill="#4758A9" fill-rule="nonzero"></path>
                            </g>
                        </g>
                    </g>
                </g>
            </g>
        </g>
    </g>
</svg>