<?xml version="1.0" encoding="UTF-8"?>
<svg width="54px" height="54px" viewBox="0 0 54 54" version="1.1" xmlns="http://www.w3.org/2000/svg" xmlns:xlink="http://www.w3.org/1999/xlink">
    <!-- Generator: Sketch 64 (93537) - https://sketch.com -->
    <title>Group 4</title>
    <desc>Created with Sketch.</desc>
    <defs>
        <filter x="-75.9%" y="-70.0%" width="253.3%" height="240.0%" filterUnits="objectBoundingBox" id="filter-1">
            <feMorphology radius="2.5" operator="dilate" in="SourceAlpha" result="shadowSpreadOuter1"></feMorphology>
            <feOffset dx="0" dy="0" in="shadowSpreadOuter1" result="shadowOffsetOuter1"></feOffset>
            <feGaussianBlur stdDeviation="3.5" in="shadowOffsetOuter1" result="shadowBlurOuter1"></feGaussianBlur>
            <feColorMatrix values="0 0 0 0 0   0 0 0 0 0   0 0 0 0 0  0 0 0 0.0325611888 0" type="matrix" in="shadowBlurOuter1" result="shadowMatrixOuter1"></feColorMatrix>
            <feMerge>
                <feMergeNode in="shadowMatrixOuter1"></feMergeNode>
                <feMergeNode in="SourceGraphic"></feMergeNode>
            </feMerge>
        </filter>
        <rect id="path-2" x="0" y="0" width="40" height="40" rx="20"></rect>
    </defs>
    <g id="Global-Landing-Page-(Draft-3)---In-progress-Copy" stroke="none" stroke-width="1" fill="none" fill-rule="evenodd">
        <g id="D|-Global-Landing-Page---V2" transform="translate(-197.000000, -9387.000000)">
            <g id="Group-27" transform="translate(0.000000, 9100.000000)">
                <g id="Group-20" transform="translate(180.000000, 276.000000)">
                    <g id="India@2x" filter="url(#filter-1)" transform="translate(24.000000, 18.000000)">
                        <g id="Group-4" transform="translate(0.000000, 0.000000)">
                            <mask id="mask-3" fill="white">
                                <use xlink:href="#path-2"></use>
                            </mask>
                            <use id="Mask" fill="#D8D8D8" xlink:href="#path-2"></use>
                            <g id="India@2x" mask="url(#mask-3)">
                                <g transform="translate(-10.000000, -1.000000)">
                                    <g id="Hungary-4" stroke-width="1" fill="none" fill-rule="evenodd">
                                        <g id="Bolivia-14" fill-rule="nonzero">
                                            <path d="M0.652511741,6.4488498 L0.652511741,14.0756104 L59.9717609,14.0756104 L59.9717609,6.4488498 C59.9717609,3.34122387 57.4525323,0.82199531 54.3449064,0.82199531 L6.27936623,0.82199531 C4.78703164,0.82199531 3.35581918,1.41482292 2.30057926,2.47006283 C1.24533935,3.52530275 0.652511741,4.95651521 0.652511741,6.4488498 Z" id="Shape" fill="#FC6E51"></path>
                                            <polygon id="Shape" fill="#FFFFFF" points="0.652511741 27.3800706 59.9717609 27.3800706 59.9717609 14.1010329 0.652511741 14.1010329"></polygon>
                                            <path d="M0.652511741,35.0153054 C0.652511741,38.1229313 3.17174031,40.6421598 6.27936623,40.6421598 L54.3449064,40.6421598 C57.4525323,40.6421598 59.9717609,38.1229313 59.9717609,35.0153054 L59.9717609,27.3885448 L0.652511741,27.3885448 L0.652511741,35.0153054 Z" id="Shape" fill="#57A863"></path>
                                        </g>
                                    </g>
                                    <path d="M35.3119016,20.4142959 L34.9814086,19.8465259 C34.8702513,19.6309096 34.8066752,19.3939437 34.7949767,19.1516433 L34.7949767,18.4906574 C34.7831718,18.2634809 34.6634995,18.0556291 34.4729579,17.9313616 L33.9221363,17.617817 C33.7168542,17.488374 33.5431286,17.3146484 33.4136856,17.1093663 L33.0916668,16.5585447 C32.9673994,16.3680031 32.7595475,16.2483309 32.5323711,16.2365259 L31.8713852,16.2365259 C31.6290847,16.2248275 31.3921188,16.1612513 31.1765025,16.050094 L30.6087326,15.7280752 C30.4063288,15.6254053 30.1670987,15.6254053 29.964695,15.7280752 L29.4138734,16.050094 C29.198955,16.1630452 28.961585,16.2267298 28.7189908,16.2365259 L28.0834274,16.2365259 C27.8562509,16.2483309 27.6483991,16.3680031 27.5241316,16.5585447 L27.1936386,17.1263146 C27.0639718,17.3314179 26.8902912,17.5050985 26.6851879,17.6347654 L26.117418,17.9652583 C25.9268764,18.0895258 25.8072042,18.2973776 25.7953992,18.5245541 L25.7953992,19.1601175 C25.7856031,19.4027117 25.7219185,19.6400817 25.6089673,19.8550001 L25.2869485,20.4058217 C25.1856299,20.6085465 25.1856299,20.8471345 25.2869485,21.0498593 L25.6174415,21.6176292 C25.7285988,21.8332455 25.7921749,22.0702115 25.8038734,22.3125119 L25.8038734,22.9734978 C25.8156783,23.2006742 25.9353506,23.4085261 26.1258922,23.5327936 L26.6767138,23.8463382 C26.8821767,23.9755546 27.055948,24.1493259 27.1851645,24.3547889 L27.5071833,24.9056105 C27.6314507,25.096152 27.8393026,25.2158243 28.066479,25.2276292 L28.7274649,25.2276292 C28.9697654,25.2393277 29.2067313,25.3029038 29.4223476,25.4140612 L29.9901175,25.73608 C30.1925213,25.8387499 30.4317514,25.8387499 30.6341551,25.73608 L31.1849767,25.4140612 C31.3996845,25.3005728 31.6371785,25.2368548 31.8798593,25.2276292 L32.5154227,25.2276292 C32.7425992,25.2158243 32.950451,25.096152 33.0747185,24.9056105 L33.4052115,24.3378405 C33.5363774,24.133941 33.7097627,23.9605558 33.9136622,23.8293898 L34.4814321,23.4988968 C34.6719737,23.3746294 34.7916459,23.1667775 34.8034509,22.9396011 L34.8034509,22.3040377 C34.813247,22.0614435 34.8769316,21.8240734 34.9898828,21.609155 L35.3119016,21.0583334 C35.4145715,20.8559297 35.4145715,20.6166996 35.3119016,20.4142959 Z M33.3289438,20.9312208 L33.1340377,21.2617137 C33.0662035,21.3929771 33.0285646,21.5377421 33.0238734,21.6854227 L33.0238734,22.032864 C33.0166538,22.1704627 32.9442559,22.2963721 32.8289673,22.3718311 L32.481526,22.5752114 C32.3586756,22.6532757 32.2545199,22.7574314 32.1764556,22.8802818 L31.9815495,23.2277231 C31.9060905,23.3430117 31.780181,23.4154097 31.6425823,23.4226292 L31.2527701,23.4226292 C31.1079707,23.4285627 30.9662324,23.4661668 30.8375354,23.5327936 L30.5070424,23.7276997 C30.3848191,23.7910193 30.2394535,23.7910193 30.1172302,23.7276997 L29.7697889,23.5327936 C29.6384237,23.4652255 29.4937197,23.4276026 29.34608,23.4226292 L28.9477936,23.4226292 C28.8101949,23.4154097 28.6842854,23.3430117 28.6088264,23.2277231 L28.4139203,22.8972302 C28.335856,22.7743798 28.2317003,22.6702241 28.1088499,22.5921597 L27.7868311,22.3972536 C27.6715426,22.3217946 27.5991446,22.1958852 27.591925,22.0582865 L27.591925,21.6600001 C27.5854544,21.5152825 27.5478805,21.3736577 27.4817607,21.2447654 L27.2868546,20.8973241 C27.2249279,20.7747651 27.2249279,20.6300708 27.2868546,20.5075119 L27.4817607,20.1770189 C27.549866,20.0458595 27.5875212,19.9010318 27.591925,19.75331 L27.591925,19.3719719 C27.5991446,19.2343732 27.6715426,19.1084638 27.7868311,19.0330048 L28.1342725,18.8296245 C28.2571229,18.7515602 28.3612786,18.6474045 28.4393429,18.5245541 L28.634249,18.1771128 C28.709708,18.0618242 28.8356174,17.9894262 28.9732161,17.9822067 L29.3630283,17.9822067 C29.5078277,17.9762732 29.6495661,17.9386691 29.7782631,17.8720424 L30.108756,17.6771362 C30.231315,17.6152095 30.3760093,17.6152095 30.4985682,17.6771362 L30.8460096,17.8720424 C30.9772729,17.9398766 31.122038,17.9775155 31.2697185,17.9822067 L31.6680049,17.9822067 C31.8056036,17.9894262 31.931513,18.0618242 32.006972,18.1771128 L32.2018781,18.5076057 C32.2799424,18.6304562 32.3840981,18.7346119 32.5069485,18.8126762 L32.8459157,19.0075823 C32.9612042,19.0830413 33.0336022,19.2089507 33.0408218,19.3465494 L33.0408218,19.7448358 C33.0470262,19.889594 33.084615,20.0312749 33.1509861,20.1600705 L33.3458922,20.5075119 C33.407819,20.6300708 33.407819,20.7747651 33.3458922,20.8973241 L33.3289438,20.9312208 Z" id="Shape" fill="#4758A9" fill-rule="nonzero"></path>
                                </g>
                            </g>
                        </g>
                    </g>
                </g>
            </g>
        </g>
    </g>
</svg>