<?xml version="1.0" encoding="UTF-8"?>
<svg width="17px" height="16px" viewBox="0 0 17 16" version="1.1" xmlns="http://www.w3.org/2000/svg" xmlns:xlink="http://www.w3.org/1999/xlink">
    <!-- Generator: Sketch 64 (93537) - https://sketch.com -->
    <title>Linked In</title>
    <desc>Created with Sketch.</desc>
    <g id="Global-Landing-Page-(Draft-3)---In-progress-Copy" stroke="none" stroke-width="1" fill="none" fill-rule="evenodd">
        <g id="D|-Global-Landing-Page---V2" transform="translate(-119.000000, -10952.000000)">
            <g id="Group-15" transform="translate(0.000000, 10520.000000)">
                <g id="Linked-In" transform="translate(109.000000, 423.000000)">
                    <rect id="Rectangle-Copy-3" x="0" y="0" width="36" height="36" rx="6"></rect>
                    <path d="M27,18.8095873 L27,25 L23.3563496,25 L23.3563496,19.2241838 C23.3563496,17.7732517 22.8293348,16.7830473 21.5104541,16.7830473 C20.503656,16.7830473 19.9045097,17.4503725 19.6409233,18.0958973 C19.5448006,18.3266699 19.5200585,18.6478752 19.5200585,18.9709101 L19.5200585,25 L15.8751828,25 C15.8751828,25 15.9242718,15.2176632 15.8751828,14.2041401 L19.5197028,14.2041401 L19.5197028,15.7344101 C19.5123118,15.7458553 19.5027074,15.7581958 19.4957512,15.7692907 L19.5197028,15.7692907 L19.5197028,15.7344101 C20.0039129,14.999854 20.8686613,13.9505161 22.804237,13.9505161 C25.2022845,13.9505161 27,15.4935158 27,18.8095873 Z M12.0624876,9 C10.8155804,9 10,9.80556299 10,10.8649058 C10,11.9011635 10.7919845,12.7311741 12.0141101,12.7311741 L12.038457,12.7311741 C13.3095135,12.7311741 14.099996,11.9013192 14.099996,10.8649058 C14.0760444,9.80556299 13.3095135,9 12.0624876,9 Z M10.2164737,25 L13.859966,25 L13.859966,14.2041401 L10.2164737,14.2041401 L10.2164737,25 Z" id="LinkedIn" fill="#FFFFFF" fill-rule="nonzero"></path>
                </g>
            </g>
        </g>
    </g>
</svg>