<?xml version="1.0" encoding="UTF-8"?>
<svg width="17px" height="13px" viewBox="0 0 17 13" version="1.1" xmlns="http://www.w3.org/2000/svg" xmlns:xlink="http://www.w3.org/1999/xlink">
    <!-- Generator: Sketch 64 (93537) - https://sketch.com -->
    <title>Youtube</title>
    <desc>Created with Sketch.</desc>
    <g id="Global-Landing-Page-(Draft-3)---In-progress-Copy" stroke="none" stroke-width="1" fill="none" fill-rule="evenodd">
        <g id="D|-Global-Landing-Page---V2" transform="translate(-65.000000, -10955.000000)">
            <g id="Group-15" transform="translate(0.000000, 10520.000000)">
                <g id="Youtube" transform="translate(55.000000, 423.000000)">
                    <rect id="Rectangle-Copy" fill="#FFFFFF" opacity="0" x="0" y="0" width="36" height="36" rx="6"></rect>
                    <path d="M26.7068966,14.03125 C26.7068966,13.95 26.7068966,13.86875 26.6336207,13.7875 C26.6336207,13.7875 26.6336207,13.70625 26.6336207,13.70625 C26.4137931,12.975 25.8275862,12.4875 25.0948276,12.4875 L25.2413793,12.4875 C25.2413793,12.4875 22.3836207,12 18.5,12 C14.6896552,12 11.7586207,12.4875 11.7586207,12.4875 L11.9051724,12.4875 C11.1724138,12.4875 10.5862069,12.975 10.3663793,13.70625 C10.3663793,13.70625 10.3663793,13.7875 10.3663793,13.7875 C10.3663793,13.86875 10.3663793,13.95 10.2931034,14.03125 C10.2198276,14.84375 10,16.55 10,18.5 C10,20.45 10.2198276,22.15625 10.2931034,22.96875 C10.2931034,23.05 10.2931034,23.13125 10.3663793,23.2125 C10.3663793,23.2125 10.3663793,23.29375 10.3663793,23.29375 C10.5862069,24.025 11.1724138,24.5125 11.9051724,24.5125 L11.7586207,24.5125 C11.7586207,24.5125 14.6163793,25 18.5,25 C22.3103448,25 25.2413793,24.5125 25.2413793,24.5125 L25.0948276,24.5125 C25.8275862,24.5125 26.4137931,24.025 26.6336207,23.29375 C26.6336207,23.29375 26.6336207,23.2125 26.6336207,23.2125 C26.6336207,23.13125 26.6336207,23.05 26.7068966,22.96875 C26.7801724,22.15625 27,20.45 27,18.5 C27,16.55 26.8534483,14.84375 26.7068966,14.03125 Z" id="Path" fill="#FFFFFF" fill-rule="nonzero"></path>
                    <path d="M20.9913793,18.90625 L17.5474138,21.66875 C17.4741379,21.75 17.4008621,21.75 17.3275862,21.75 C17.2543103,21.75 17.1810345,21.75 17.1077586,21.66875 C16.9612069,21.5875 16.887931,21.425 16.887931,21.2625 L16.887931,15.7375 C16.887931,15.575 16.9612069,15.4125 17.1077586,15.33125 C17.2543103,15.25 17.4008621,15.25 17.5474138,15.33125 L20.9913793,18.09375 C21.0646552,18.175 21.137931,18.3375 21.137931,18.5 C21.2112069,18.6625 21.137931,18.825 20.9913793,18.90625 Z" id="Path" fill="#9E2685" fill-rule="nonzero"></path>
                </g>
            </g>
        </g>
    </g>
</svg>