<?xml version="1.0" encoding="UTF-8"?>
<svg width="20px" height="20px" viewBox="0 0 20 20" version="1.1" xmlns="http://www.w3.org/2000/svg" xmlns:xlink="http://www.w3.org/1999/xlink">
    <!-- Generator: Sketch 64 (93537) - https://sketch.com -->
    <title>Group 4</title>
    <desc>Created with Sketch.</desc>
    <defs>
        <rect id="path-1" x="0" y="0" width="20" height="20" rx="10"></rect>
    </defs>
    <g id="Global-Landing-Page-(Draft-3)---In-progress-Copy" stroke="none" stroke-width="1" fill="none" fill-rule="evenodd">
        <g id="D|-Global-Landing-Page---V2" transform="translate(-752.000000, -4594.000000)">
            <g id="Group-24" transform="translate(545.000000, 4564.000000)">
                <g id="Philippines-logo" transform="translate(207.000000, 30.000000)">
                    <g id="Group-4" transform="translate(0.000000, 0.000000)">
                        <mask id="mask-2" fill="white">
                            <use xlink:href="#path-1"></use>
                        </mask>
                        <use id="Mask" fill="#D8D8D8" xlink:href="#path-1"></use>
                        <g id="philippines@2x" mask="url(#mask-2)" fill-rule="nonzero">
                            <g transform="translate(-0.500000, -0.500000)">
                                <path d="M27.951875,0.0525 L2.891875,0.0525 C1.35514268,0.0525 0.109375,1.29826768 0.109375,2.835 L0.109375,10.5525 L30.734375,10.5525 L30.734375,2.835 C30.734375,1.29826768 29.4886073,0.0525 27.951875,0.0525 Z" id="Shape" fill="#4758A9"></path>
                                <path d="M0.109375,17.828125 C0.109375,19.3648573 1.35514268,20.610625 2.891875,20.610625 L27.9475,20.610625 C28.6854649,20.610625 29.3932047,20.3174696 29.9150246,19.7956496 C30.4368446,19.2738297 30.73,18.5660899 30.73,17.828125 L30.73,10.5525 L0.105,10.5525 L0.109375,17.828125 Z" id="Shape" fill="#ED5565"></path>
                                <path d="M0.940625,0.853125 C0.407384616,1.37626356 0.107692484,2.09237003 0.109367954,2.839375 L0.109367954,17.8325 C0.109877698,18.5872732 0.41794146,19.3092482 0.9625,19.831875 L11.046875,10.5525 L0.940625,0.853125 Z" id="Shape" fill="#FFFFFF"></path>
                                <circle id="Ellipse_3_copy_2-4" fill="#F6D660" cx="4.484375" cy="10.33375" r="1.75"></circle>
                            </g>
                        </g>
                    </g>
                </g>
            </g>
        </g>
    </g>
</svg>