<?xml version="1.0" encoding="UTF-8"?>
<svg width="22px" height="22px" viewBox="0 0 22 22" version="1.1" xmlns="http://www.w3.org/2000/svg" xmlns:xlink="http://www.w3.org/1999/xlink">
    <!-- Generator: sketchtool 61.2 (101010) - https://sketch.com -->
    <title>4A04FF54-21FE-4824-89F7-34795BB948B8</title>
    <desc>Created with sketchtool.</desc>
    <g id="Global-Landing-Page-(Draft-3)---In-progress-Copy" stroke="none" stroke-width="1" fill="none" fill-rule="evenodd">
        <g id="D|-Global-Landing-Page---V2" transform="translate(-232.000000, -587.000000)" fill="#FFFFFF" fill-rule="nonzero" stroke="#FFFFFF">
            <g id="Group-23">
                <g id="White-Outline-Play-CTA-Copy" transform="translate(155.000000, 576.000000)">
                    <g id="Group-56">
                        <g id="Group" transform="translate(78.000000, 12.000000)">
                            <path d="M10,0 C4.48297561,0 0,4.48297342 0,10 C0,15.5170266 4.48297561,20 10,20 C15.5170244,20 20,15.5170266 20,10 C20,4.48297342 15.5170244,0 10,0 Z M10,1 C14.9762703,1 19,5.02372755 19,10 C19,14.9762724 14.9762703,19 10,19 C5.02372973,19 1,14.9762724 1,10 C1,5.02372755 5.02372973,1 10,1 Z M7,6 L7,14 L14,10 L7,6 Z" id="Shape"></path>
                        </g>
                    </g>
                </g>
            </g>
        </g>
    </g>
</svg>