<?xml version="1.0" encoding="UTF-8" standalone="no"?><!DOCTYPE svg PUBLIC "-//W3C//DTD SVG 1.1//EN" "http://www.w3.org/Graphics/SVG/1.1/DTD/svg11.dtd"><svg width="100%" height="100%" viewBox="0 0 221 39" version="1.1" xmlns="http://www.w3.org/2000/svg" xmlns:xlink="http://www.w3.org/1999/xlink" xml:space="preserve" xmlns:serif="http://www.serif.com/" style="fill-rule:evenodd;clip-rule:evenodd;stroke-linejoin:round;stroke-miterlimit:1.41421;"><path d="M-3.001,21.965c0,0 19.385,0 31.436,0c2.487,0 4.873,-0.988 6.632,-2.747c1.759,-1.759 2.747,-4.145 2.747,-6.632c0,-14.546 0,-42.544 0,-58.662c0,-3.245 1.289,-6.358 3.584,-8.653c2.295,-2.295 5.408,-3.584 8.653,-3.584c27.482,0 93.833,0 121.314,0c3.246,0 6.358,1.289 8.653,3.584c2.295,2.295 3.585,5.408 3.585,8.653c0,16.118 0,44.116 0,58.662c0,2.487 0.988,4.873 2.747,6.632c1.759,1.759 4.144,2.747 6.632,2.747c12.051,0 31.435,0 31.435,0l0.112,20.395l-227.53,0l0,-20.395Z" style="fill:#ffcd6e;"/></svg>