<?xml version="1.0" encoding="UTF-8"?>
<svg width="28px" height="27px" viewBox="0 0 28 27" version="1.1" xmlns="http://www.w3.org/2000/svg" xmlns:xlink="http://www.w3.org/1999/xlink">
    <!-- Generator: sketchtool 54.1 (76490) - https://sketchapp.com -->
    <title>62A24F7A-06D1-4F85-8894-74C661BCCA9B</title>
    <desc>Created with sketchtool.</desc>
    <g id="Home-&amp;-brand-page" stroke="none" stroke-width="1" fill="none" fill-rule="evenodd">
        <g id="Brand-Page-(Updated)" transform="translate(-626.000000, -1903.000000)" fill="#FFFFFF" fill-rule="nonzero">
            <g id="Group-57" transform="translate(155.000000, 1740.000000)">
                <g id="Group-43" transform="translate(368.000000, 146.000000)">
                    <g id="discussion-icon" transform="translate(103.000000, 17.000000)">
                        <g id="Group-63" transform="translate(0.000000, 0.139303)">
                            <path d="M18.82826,2.385676 C20.9492048,4.55014756 22.1464295,7.44991574 22.1464295,10.5133854 C22.1464295,16.3166624 17.9097088,21.1449393 12.2985618,22.0031311 C13.8354315,22.8432661 15.5693618,23.2996852 17.3382837,23.2996852 C18.430296,23.2996852 19.4944239,23.1325492 20.5195818,22.8038539 L24.0184214,26.3026935 C24.1242799,26.408552 24.2635656,26.4642527 24.4084282,26.4642527 C24.4808595,26.4642527 24.5532908,26.453133 24.6257221,26.4252826 C24.8318622,26.3361207 24.9655711,26.1355575 24.9655711,25.9071098 L24.9655711,20.0237165 C26.8319861,18.0569858 27.857144,15.499719 27.857144,12.7864359 C27.857144,7.49361256 23.9232065,3.11325346 18.82826,2.385676 Z" id="Path"></path>
                            <path d="M17.2157286,2.41240421 C15.3325829,0.852410944 12.9535719,-2.45137244e-13 10.5188603,-2.45137244e-13 C4.71898386,-2.45137244e-13 6.39488462e-14,4.71340703 6.39488462e-14,10.5132834 C6.39488462e-14,13.2265665 1.02515789,15.7894101 2.89157288,17.7505639 L2.89157288,23.6395682 C2.89157288,23.862405 3.02528171,24.0685451 3.2314219,24.1521302 C3.30385321,24.1799805 3.37628451,24.1967111 3.44871576,24.1967111 C3.59357837,24.1967111 3.73286409,24.1409764 3.83872257,24.0295411 L7.33756219,20.5362783 C8.36272008,20.8649736 9.42684799,21.0321097 10.5188603,21.0321097 C10.6915732,21.0321097 10.8642861,21.0265668 11.0258453,21.015413 C16.6362782,20.7479954 21.0321437,16.1348361 21.0321437,10.5132834 C21.0321437,7.37098943 19.6392865,4.41813897 17.2157286,2.41240421 Z M5.76087236,12.4632835 C4.68555668,12.4632835 3.81087228,11.5885651 3.81087228,10.5132834 C3.81087228,9.43800171 4.68555668,8.56328332 5.76087236,8.56328332 C6.83615405,8.56328332 7.71087244,9.43800171 7.71087244,10.5132834 C7.71087244,11.5885651 6.83615399,12.4632835 5.76087236,12.4632835 Z M10.5188603,12.4632835 C9.4435786,12.4632835 8.56886021,11.5885651 8.56886021,10.5132834 C8.56886021,9.43800171 9.4435786,8.56328332 10.5188603,8.56328332 C11.594142,8.56328332 12.4688604,9.43800171 12.4688604,10.5132834 C12.4688604,11.5885651 11.594142,12.4632835 10.5188603,12.4632835 Z M15.2712713,12.4632835 C14.1959896,12.4632835 13.3212713,11.5885651 13.3212713,10.5132834 C13.3212713,9.43800171 14.1959896,8.56328332 15.2712713,8.56328332 C16.346587,8.56328332 17.2212714,9.43800171 17.2212714,10.5132834 C17.2212714,11.5885651 16.3465871,12.4632835 15.2712713,12.4632835 Z" id="Shape"></path>
                        </g>
                    </g>
                </g>
            </g>
        </g>
    </g>
</svg>