<?xml version="1.0" encoding="UTF-8"?>
<svg width="20px" height="20px" viewBox="0 0 20 20" version="1.1" xmlns="http://www.w3.org/2000/svg" xmlns:xlink="http://www.w3.org/1999/xlink">
    <!-- Generator: sketchtool 54.1 (76490) - https://sketchapp.com -->
    <title>B55DC575-7EC9-428E-BF04-44A951F6F9A1</title>
    <desc>Created with sketchtool.</desc>
    <g id="Home-&amp;-brand-page" stroke="none" stroke-width="1" fill="none" fill-rule="evenodd">
        <g id="Homepage-(Updated)" transform="translate(-1073.000000, -1869.000000)" fill="#3D5B99" fill-rule="nonzero">
            <g id="Group-16" transform="translate(-1.000000, 1540.000000)">
                <g id="Group-14" transform="translate(156.000000, 87.000000)">
                    <path d="M936.895475,242 L919.103866,242 C918.494632,242 918,242.493644 918,243.103866 L918,260.895475 C918,261.505697 918.494632,262 919.103866,262 L928.682342,262 L928.682342,254.254824 L926.076138,254.254824 L926.076138,251.235988 L928.682342,251.235988 L928.682342,249.009814 C928.682342,246.426991 930.259435,245.019825 932.563986,245.019825 C933.66884,245.019825 934.616281,245.102483 934.892577,245.138378 L934.892577,247.838108 L933.294079,247.838767 C932.041033,247.838767 931.799315,248.434499 931.799315,249.308174 L931.799315,251.235 L934.788843,251.235 L934.397945,254.253507 L931.798986,254.253507 L931.798986,261.999012 L936.895146,261.999012 C937.505039,261.999012 938,261.504051 938,260.895475 L938,243.103208 C937.999671,242.493644 937.505368,242 936.895475,242 Z" id="Path-Copy"></path>
                </g>
            </g>
        </g>
    </g>
</svg>