<?xml version="1.0" encoding="UTF-8"?>
<svg width="40px" height="40px" viewBox="0 0 40 40" version="1.1" xmlns="http://www.w3.org/2000/svg" xmlns:xlink="http://www.w3.org/1999/xlink">
    <!-- Generator: sketchtool 54.1 (76490) - https://sketchapp.com -->
    <title>0A4B22A7-4B1F-4718-9205-BAC736943FF4</title>
    <desc>Created with sketchtool.</desc>
    <g id="Web-screens-" stroke="none" stroke-width="1" fill="none" fill-rule="evenodd">
        <g id="Homepage-(Updated)-1" transform="translate(-52.000000, -6494.000000)" fill="#FFFFFF">
            <g id="Group-15" transform="translate(-3.000000, 6073.000000)">
                <path d="M72.1766667,451.88 L76.6726667,451.88 L76.6726667,440.998667 L79.672,440.998667 L80.0693333,437.249333 L76.6726667,437.249333 L76.6773333,435.372 C76.6773333,434.394667 76.7706667,433.87 78.1733333,433.87 L80.048,433.87 L80.048,430.12 L77.048,430.12 C73.4446667,430.12 72.1766667,431.939333 72.1766667,434.998 L72.1766667,437.249333 L69.9306667,437.249333 L69.9306667,440.999333 L72.1766667,440.999333 L72.1766667,451.88 L72.1766667,451.88 Z M75,461 C63.9546667,461 55,452.045333 55,441 C55,429.954 63.9546667,421 75,421 C86.0453333,421 95,429.954 95,441 C95,452.045333 86.0453333,461 75,461 Z" id="Shape"></path>
            </g>
        </g>
    </g>
</svg>