<?xml version="1.0" encoding="UTF-8"?>
<svg width="18px" height="19px" viewBox="0 0 18 19" version="1.1" xmlns="http://www.w3.org/2000/svg" xmlns:xlink="http://www.w3.org/1999/xlink">
    <!-- Generator: sketchtool 54.1 (76490) - https://sketchapp.com -->
    <title>ED81A2C2-691D-4DAC-BF7B-A8B5C7C94AF6</title>
    <desc>Created with sketchtool.</desc>
    <defs>
        <linearGradient x1="61.6793004%" y1="64.8888436%" x2="107.169224%" y2="51.1227761%" id="linearGradient-1">
            <stop stop-color="#FF9513" offset="0%"></stop>
            <stop stop-color="#FFCD67" offset="100%"></stop>
        </linearGradient>
        <linearGradient x1="57.8183746%" y1="133.982384%" x2="88.270307%" y2="56.3331588%" id="linearGradient-2">
            <stop stop-color="#FF9513" offset="0%"></stop>
            <stop stop-color="#FFCD67" offset="100%"></stop>
        </linearGradient>
    </defs>
    <g id="Home-&amp;-brand-page" stroke="none" stroke-width="1" fill="none" fill-rule="evenodd">
        <g id="Homepage-(Updated)" transform="translate(-191.000000, -4168.000000)" fill-rule="nonzero">
            <g id="Group-26" transform="translate(156.000000, 3789.000000)">
                <g id="Group-22" transform="translate(0.000000, 140.000000)">
                    <g id="Gift" transform="translate(35.000000, 239.000000)">
                        <path d="M15.4948701,4.02116402 C15.5778147,3.74482975 15.6225324,3.457849 15.6277056,3.16867725 C15.602085,1.41088798 14.2102087,-0.000197784502 12.5021645,0 C11.3379004,0 9.59541126,1.39132275 8.5952381,2.82285714 C7.59506494,1.39132275 5.85257576,0 4.68831169,0 C2.98026746,-0.000197784503 1.58839122,1.41088798 1.56277056,3.16867725 C1.56794376,3.457849 1.61266144,3.74482975 1.69560606,4.02116402 L0,4.02116402 L0,7.23809524 L17.1904762,7.23809524 L17.1904762,4.02116402 L15.4948701,4.02116402 Z M12.5021645,1.60846561 C13.3472765,1.6080741 14.0395818,2.29924581 14.0649351,3.16867725 C14.0643194,3.4730766 13.9744476,3.77019659 13.8070779,4.02116402 L9.66573593,4.02116402 C10.298658,3.00783069 11.837987,1.60846561 12.5021645,1.60846561 Z M3.12554113,3.16867725 C3.1508944,2.29924581 3.8431997,1.6080741 4.68831169,1.60846561 C5.35248918,1.60846561 6.89181818,3.00783069 7.52474026,4.02116402 L3.38339827,4.02116402 C3.21602862,3.77019659 3.12615683,3.4730766 3.12554113,3.16867725 L3.12554113,3.16867725 Z" id="Shape" fill="url(#linearGradient-1)"></path>
                        <path d="M0,9.04761905 L0,17.4688645 C1.8080775e-16,18.3144873 0.729136265,19 1.62857143,19 L8.14285714,19 L8.14285714,9.04761905 L0,9.04761905 Z" id="Path" fill="url(#linearGradient-2)"></path>
                        <path d="M9.04761905,9.04761905 L9.04761905,19 L15.5619048,19 C16.4613399,19 17.1904762,18.3144873 17.1904762,17.4688645 L17.1904762,9.04761905 L9.04761905,9.04761905 Z" id="Path" fill="url(#linearGradient-2)"></path>
                    </g>
                </g>
            </g>
        </g>
    </g>
</svg>