<svg width="112" height="56" viewBox="0 0 112 56" xmlns="http://www.w3.org/2000/svg"><g id="Page-1" stroke="none" stroke-width="1" fill="none" fill-rule="evenodd"><g id="action_bar_56px_web" transform="translate(-8)"><g id="logo" transform="translate(8)"><path id="container" d="M0 0h112v56H0z"/><path d="M14.08 20.482c-.043.2-.072.425-.086.675-.014.25-.021.49-.021.718V23.247a3.73 3.73 0 0 0 .579-.15c.386-.128.714-.3.986-.514.271-.215.507-.494.707-.837a1.953 1.953 0 0 0 .054-1.35c-.064-.2-.16-.379-.29-.536a1.217 1.217 0 0 0-.407-.332.978.978 0 0 0-.429-.119h-.021a.9.9 0 0 0-.268.044 1.339 1.339 0 0 0-.311.15c-.2.128-.365.422-.493.879m7.761 13.571c.1.358.307.65.622.88l-.686 1.007a2.56 2.56 0 0 1-.697-.718 3.839 3.839 0 0 1-.418-.869 4.342 4.342 0 0 1-.129-.836 15.313 15.313 0 0 1-.021-.793V30.473c0-.572-.09-1.097-.268-1.576a4.002 4.002 0 0 0-.74-1.254c-.615-.743-1.365-1.116-2.25-1.116-.901 0-1.66.373-2.274 1.116-.3.343-.54.754-.718 1.232-.179.48-.275.99-.29 1.534v5.166h-1.2V24.62a3.35 3.35 0 0 1-.375.022H12v-1.222h.397c.121 0 .246-.007.375-.021V21.875c0-.243.007-.507.021-.793.015-.286.05-.579.107-.88.072-.285.186-.574.344-.868.157-.292.386-.539.686-.74.186-.142.386-.242.6-.3.214-.057.422-.085.622-.085.371 0 .707.086 1.008.257.3.172.55.386.75.644.214.256.386.546.515.868.128.322.193.661.193 1.018 0 .215-.026.432-.076.654-.05.222-.132.44-.246.654-.257.5-.593.908-1.008 1.222-.415.315-.865.55-1.35.707a2.887 2.887 0 0 1-.462.14c-.164.036-.332.075-.503.118v2.422c.043-.013.064-.035.064-.064.414-.457.893-.829 1.436-1.114a3.762 3.762 0 0 1 1.78-.43c.629 0 1.218.144 1.77.43.549.285 1.017.657 1.403 1.114.414.472.736 1.019.965 1.64.228.622.343 1.284.343 1.984V32.724c0 .243.007.479.021.707.015.23.043.437.086.622zm6.368.343c.5 0 .976-.1 1.426-.3.45-.2.843-.479 1.179-.836a4.058 4.058 0 0 0 1.083-2.788c0-.557-.097-1.075-.29-1.554a3.99 3.99 0 0 0-.793-1.254 3.624 3.624 0 0 0-1.18-.836c-.45-.2-.925-.3-1.425-.3s-.972.1-1.415.3c-.443.2-.83.479-1.158.836-.33.357-.593.775-.793 1.254-.2.48-.308.997-.322 1.554.014.544.121 1.055.322 1.534.2.479.464.897.793 1.254s.715.636 1.158.836c.443.2.914.3 1.415.3zm0-9.09a4.56 4.56 0 0 1 1.919.407 4.938 4.938 0 0 1 1.555 1.115 5.348 5.348 0 0 1 1.436 3.644c0 .701-.129 1.362-.386 1.984a5.374 5.374 0 0 1-1.05 1.64 4.92 4.92 0 0 1-1.555 1.115 4.543 4.543 0 0 1-1.92.408c-.685 0-1.328-.136-1.929-.408a4.869 4.869 0 0 1-1.565-1.115 5.19 5.19 0 0 1-1.04-1.64 5.258 5.258 0 0 1-.375-1.984c0-.7.125-1.364.376-1.994.25-.628.596-1.179 1.04-1.65a4.887 4.887 0 0 1 1.564-1.115 4.632 4.632 0 0 1 1.93-.407zm8.083 5.167a4.065 4.065 0 0 0 1.083 2.787c.335.358.728.636 1.179.836.45.2.925.3 1.426.3.5 0 .971-.1 1.414-.3.444-.2.83-.478 1.159-.836a4.09 4.09 0 0 0 .782-1.254c.193-.48.289-.99.289-1.533a4.118 4.118 0 0 0-1.071-2.81 3.54 3.54 0 0 0-1.159-.835c-.443-.2-.915-.3-1.414-.3-.501 0-.976.1-1.426.3-.45.2-.844.479-1.18.836-.335.357-.6.775-.793 1.254-.193.48-.29.997-.29 1.555zm3.688-5.167a4.56 4.56 0 0 1 1.918.407 4.944 4.944 0 0 1 1.555 1.115 5.35 5.35 0 0 1 1.437 3.645c0 .7-.13 1.361-.387 1.983a5.378 5.378 0 0 1-1.05 1.64 4.926 4.926 0 0 1-1.555 1.115 4.55 4.55 0 0 1-1.918.407c-.744 0-1.434-.16-2.07-.482a5.054 5.054 0 0 1-1.64-1.319V41h-1.2V28.114c0-.514-.05-.965-.15-1.35-.1-.343-.3-.644-.6-.901l.685-.986c.286.2.522.44.708.718.185.279.314.561.386.847.043.115.071.229.086.343l.042.364a5.316 5.316 0 0 1 1.64-1.34 4.462 4.462 0 0 1 2.113-.503zM51.3 30.9c.286.244.529.53.729.858.2.329.3.7.3 1.115 0 .357-.064.715-.193 1.072-.129.3-.304.561-.525.782-.222.222-.469.39-.74.505-.258.143-.54.246-.847.31a4.322 4.322 0 0 1-.89.097c-.814 0-1.55-.2-2.208-.6-.3-.2-.557-.465-.772-.794-.214-.329-.321-.714-.321-1.157v-.065l1.222.043v.022c0 .2.046.371.139.514.093.143.232.286.418.429.2.114.432.21.697.29a2.888 2.888 0 0 0 1.468.042c.215-.05.408-.11.58-.182.328-.2.543-.429.642-.687.058-.113.093-.22.108-.32.014-.1.021-.201.021-.301 0-.272-.107-.522-.321-.75a2.52 2.52 0 0 0-.45-.386 11.197 11.197 0 0 0-.6-.386 26.908 26.908 0 0 0-1.437-.73 8.402 8.402 0 0 1-1.437-.857 3.476 3.476 0 0 1-.74-.815 1.941 1.941 0 0 1-.31-1.093c0-.3.064-.615.193-.943a2.2 2.2 0 0 1 1.265-1.287c.257-.142.532-.243.825-.3a4.772 4.772 0 0 1 2.047.054 3.2 3.2 0 0 1 1.03.439c.314.2.582.465.803.793.222.33.333.708.333 1.137v.064h-1.2v-.064a1.01 1.01 0 0 0-.162-.504 1.747 1.747 0 0 0-.396-.397 3.273 3.273 0 0 0-.708-.29 3.031 3.031 0 0 0-.836-.117c-.486 0-.893.093-1.222.278-.3.158-.522.373-.664.644-.058.186-.086.35-.086.493 0 .229.1.465.3.707.257.258.6.493 1.029.708.457.243.947.49 1.469.74.521.25 1.004.547 1.447.89zm10.42 2.337l.535.343a5.49 5.49 0 0 1-1.693 1.47 4.46 4.46 0 0 1-2.23.567 4.55 4.55 0 0 1-1.92-.407 4.931 4.931 0 0 1-1.554-1.115 5.274 5.274 0 0 1-1.414-3.623c0-.7.125-1.365.374-1.995a5.185 5.185 0 0 1 1.04-1.65 4.95 4.95 0 0 1 1.555-1.115 4.56 4.56 0 0 1 1.92-.407c.785 0 1.513.179 2.186.536a4.932 4.932 0 0 1 1.672 1.436l-.494.364-.47.387a4.442 4.442 0 0 0-1.287-1.094 3.244 3.244 0 0 0-1.608-.407 3.509 3.509 0 0 0-2.595 1.136 4.108 4.108 0 0 0-1.072 2.809c0 .543.097 1.054.29 1.533.193.48.454.897.782 1.254a3.509 3.509 0 0 0 2.595 1.136c.586 0 1.13-.14 1.63-.418.5-.279.921-.646 1.264-1.104l.493.364zm6.474 1.158c.5 0 .976-.1 1.426-.3.45-.2.843-.479 1.18-.836.335-.357.6-.775.792-1.254.193-.48.29-.99.29-1.534 0-.557-.097-1.075-.29-1.554a3.983 3.983 0 0 0-.793-1.254 3.628 3.628 0 0 0-1.179-.836c-.45-.2-.926-.3-1.426-.3-.5 0-.972.1-1.415.3-.443.2-.83.479-1.158.836a4.281 4.281 0 0 0-1.115 2.808 4.23 4.23 0 0 0 .322 1.534c.2.479.464.897.793 1.254s.715.636 1.158.836c.443.2.914.3 1.415.3zm0-9.09c.687 0 1.326.136 1.919.407a4.936 4.936 0 0 1 1.555 1.115 5.362 5.362 0 0 1 1.05 1.65c.257.63.386 1.295.386 1.994 0 .701-.129 1.362-.386 1.984a5.388 5.388 0 0 1-1.05 1.64 4.917 4.917 0 0 1-1.555 1.115 4.542 4.542 0 0 1-1.919.408 4.61 4.61 0 0 1-1.929-.408 4.862 4.862 0 0 1-1.565-1.115 5.19 5.19 0 0 1-1.04-1.64 5.25 5.25 0 0 1-.376-1.984 5.339 5.339 0 0 1 1.416-3.644 4.88 4.88 0 0 1 1.565-1.115 4.628 4.628 0 0 1 1.93-.407zm8.726-1.073h2.937v1.201H76.92v7.397c0 .243.007.48.022.708.014.228.05.443.107.643.057.186.125.35.204.493.078.143.21.272.396.385l-.664 1.03a2.646 2.646 0 0 1-.74-.729c-.18-.271-.31-.55-.397-.836a4.485 4.485 0 0 1-.128-.868 15.884 15.884 0 0 1-.022-.826v-7.397h-1.886v-1.2h1.886v-3.216h1.222v3.215zm10.205 9.005l.536.343a5.495 5.495 0 0 1-1.693 1.47 4.46 4.46 0 0 1-2.23.567 4.546 4.546 0 0 1-1.919-.407 4.925 4.925 0 0 1-1.555-1.115 5.274 5.274 0 0 1-1.414-3.623c0-.7.125-1.365.374-1.995a5.191 5.191 0 0 1 1.04-1.65 4.943 4.943 0 0 1 1.555-1.115 4.557 4.557 0 0 1 1.92-.407c.785 0 1.513.179 2.186.536a4.94 4.94 0 0 1 1.673 1.436l-.495.364-.47.387a4.442 4.442 0 0 0-1.287-1.094 3.244 3.244 0 0 0-1.608-.407c-.5 0-.976.1-1.426.3-.45.2-.84.479-1.169.836a4.115 4.115 0 0 0-1.071 2.809 4.106 4.106 0 0 0 1.071 2.787c.329.357.719.636 1.169.836.45.2.925.3 1.426.3.586 0 1.13-.14 1.63-.418.5-.279.921-.646 1.264-1.104l.493.364zm3.71-12.756c-.043.2-.072.425-.086.675-.015.25-.022.49-.022.718V23.247c.228-.043.422-.093.58-.15.385-.128.713-.3.986-.514.27-.215.506-.494.707-.837a1.947 1.947 0 0 0 .054-1.35 1.63 1.63 0 0 0-.29-.536 1.212 1.212 0 0 0-.407-.332.98.98 0 0 0-.43-.119h-.02a.898.898 0 0 0-.269.044 1.346 1.346 0 0 0-.31.15c-.2.128-.365.422-.494.879zm7.761 13.571c.1.358.307.65.621.88l-.685 1.007a2.54 2.54 0 0 1-.697-.718 3.807 3.807 0 0 1-.418-.869 4.315 4.315 0 0 1-.13-.836 14.902 14.902 0 0 1-.02-.793V30.473c0-.572-.09-1.097-.268-1.576a4.023 4.023 0 0 0-.74-1.254c-.615-.743-1.365-1.116-2.251-1.116-.901 0-1.66.373-2.273 1.116-.3.343-.54.754-.719 1.232-.178.48-.275.99-.289 1.534v5.166h-1.2V24.62a3.355 3.355 0 0 1-.375.022h-.398v-1.222h.398c.12 0 .246-.007.375-.021V21.875c0-.243.006-.507.02-.793.015-.286.051-.579.108-.88.072-.285.186-.574.343-.868.158-.292.386-.539.687-.74.185-.142.386-.242.6-.3.214-.057.421-.085.622-.085.371 0 .707.086 1.007.257.3.172.55.386.75.644.215.256.386.546.515.868.129.322.193.661.193 1.018 0 .215-.025.432-.075.654-.05.222-.132.44-.247.654-.256.5-.593.908-1.008 1.222a4.51 4.51 0 0 1-1.35.707 2.903 2.903 0 0 1-.461.14c-.164.036-.332.075-.504.118v2.422c.043-.013.065-.035.065-.064.414-.457.892-.829 1.436-1.114a3.761 3.761 0 0 1 1.78-.43c.628 0 1.218.144 1.768.43a4.57 4.57 0 0 1 1.405 1.114c.414.472.736 1.019.965 1.64.228.622.343 1.284.343 1.984V32.724c0 .243.006.479.02.707.015.23.044.437.087.622zM35.39 21.662l-.438-.48c.01-.01.266-.242.723-.611l.409.505c-.44.356-.691.584-.694.586zm56.106-6.673c0-.005-.006-.352-.041-.91l.648-.042c.038.582.043.942.043.942l-.65.01zM88.734 5.97c-.452-.286-.969-.372-1.513-.292l-.095-.643c.698-.104 1.372.016 1.956.386l-.348.55zm-4.435 1.4l-.446-.474c.504-.475 1-.865 1.476-1.16l.342.553c-.438.272-.9.635-1.372 1.08zm6.236 1.42a8.392 8.392 0 0 0-.702-1.598l.56-.33c.283.48.539 1.06.758 1.723l-.616.204zm-8.565 1.287l-.523-.387c.398-.539.77-1.012 1.138-1.444l.496.42c-.358.422-.722.884-1.111 1.411zm9.312 2.199a23 23 0 0 0-.293-1.767l.636-.133c.119.567.22 1.178.302 1.817l-.645.083zm-11.346.788l-.547-.351a79.42 79.42 0 0 1 1.003-1.526l.538.364c-.344.51-.676 1.019-.994 1.513zm-8.877.119a6.333 6.333 0 0 0-1.688-.32l.037-.648a6.98 6.98 0 0 1 1.86.353l-.21.615zm-4.946.57l-.33-.561a7.797 7.797 0 0 1 1.723-.772l.185.623a7.132 7.132 0 0 0-1.578.71zm7.717 1.413a7.178 7.178 0 0 0-1.257-1.193l.383-.525c.482.352.93.777 1.37 1.3l-.496.418zm-10.5.786l-.453-.466c.472-.456.936-.87 1.38-1.227l.408.506c-.429.346-.878.745-1.335 1.187zm14.626.176l-.535-.368c.315-.458.662-.998.99-1.512l.549.349c-.332.52-.683 1.065-1.004 1.531zm-28.86.222a11.481 11.481 0 0 0-1.756-.13v-.65c.64 0 1.265.046 1.856.138l-.1.642zm-5.236.405l-.187-.622a14.079 14.079 0 0 1 1.81-.418l.101.642a13.48 13.48 0 0 0-1.724.398zm8.506.767a8.437 8.437 0 0 0-1.574-.747l.217-.613a9.117 9.117 0 0 1 1.696.805l-.339.555zm23.907.213c-.531 0-.921-.491-1.377-1.133l.53-.376c.213.3.609.857.84.859-.003 0 .062-.046.114-.079l.47.428c-.14.14-.306.301-.577.301zm-35.705.383l-.301-.576a21.71 21.71 0 0 1 1.667-.784l.25.6c-.528.22-1.073.476-1.616.76zm20.335.49l-.5-.414c.416-.502.809-.956 1.2-1.385l.48.437c-.383.422-.77.868-1.18 1.363zm-5.977 1.278a9.928 9.928 0 0 0-1.17-1.308l.442-.477c.439.41.858.878 1.247 1.394l-.519.39zm-17.413.109l-.375-.531a29.27 29.27 0 0 1 1.531-1.013l.341.554c-.501.309-1.005.642-1.497.99zm21.228 1.383l-.515-.397.207-.293c.25-.328.527-.688.825-1.07l.512.4c-.296.38-.571.74-.821 1.065l-.208.295zM57.17 22.96c-.37 0-.59-.382-1.019-1.143-.078-.137-.162-.286-.253-.443l.562-.327c.093.16.178.311.257.45.202.359.432.764.53.831a1.22 1.22 0 0 1 .106-.1s.392.29.373.298c0 0-.187.434-.556.434z" id="hs_logo" fill="#FEFEFE"/></g></g></g></svg>