<?xml version="1.0" encoding="UTF-8"?>
<svg width="53px" height="53px" viewBox="0 0 53 53" version="1.1" xmlns="http://www.w3.org/2000/svg" xmlns:xlink="http://www.w3.org/1999/xlink">
    <!-- Generator: Sketch 54.1 (76490) - https://sketchapp.com -->
    <title>Job Type</title>
    <desc>Created with Sketch.</desc>
    <defs>
        <circle id="path-1" cx="22.5" cy="22.5" r="22.5"></circle>
        <filter x="-13.3%" y="-13.3%" width="126.7%" height="126.7%" filterUnits="objectBoundingBox" id="filter-2">
            <feOffset dx="0" dy="0" in="SourceAlpha" result="shadowOffsetOuter1"></feOffset>
            <feGaussianBlur stdDeviation="2" in="shadowOffsetOuter1" result="shadowBlurOuter1"></feGaussianBlur>
            <feColorMatrix values="0 0 0 0 0   0 0 0 0 0   0 0 0 0 0  0 0 0 0.1 0" type="matrix" in="shadowBlurOuter1"></feColorMatrix>
        </filter>
    </defs>
    <g id="Web-screens-" stroke="none" stroke-width="1" fill="none" fill-rule="evenodd">
        <g id="About-pop-up" transform="translate(-550.000000, -245.000000)">
            <g id="Job-Type" transform="translate(554.000000, 249.000000)">
                <g id="Group-3">
                    <g id="Group-4">
                        <g id="Oval-Copy-4">
                            <use fill="black" fill-opacity="1" filter="url(#filter-2)" xlink:href="#path-1"></use>
                            <use fill="#FFFFFF" fill-rule="evenodd" xlink:href="#path-1"></use>
                        </g>
                        <circle id="Oval-Copy-5" fill="#C42279" cx="22.5" cy="22.5" r="19.5967742"></circle>
                    </g>
                </g>
                <g id="noun_job_2043816" transform="translate(11.250000, 11.250000)" fill="#FFFFFF" fill-rule="nonzero">
                    <path d="M20.34375,4.265625 L16.03125,4.265625 L16.03125,3.1875 C16.03125,1.5234375 14.671875,0.1640625 13.0078125,0.1640625 L9.4921875,0.1640625 C7.828125,0.1640625 6.46875,1.5234375 6.46875,3.1875 L6.46875,4.265625 L2.1328125,4.265625 C1.0078125,4.265625 0.1171875,5.1796875 0.1171875,6.28125 L0.1171875,8.9765625 C0.1171875,9.328125 0.3984375,9.609375 0.75,9.609375 L9.9609375,9.609375 L9.9609375,9.1171875 C9.9609375,8.8828125 10.1484375,8.6953125 10.3828125,8.6953125 L12.1171875,8.6953125 C12.3515625,8.6953125 12.5390625,8.8828125 12.5390625,9.1171875 L12.5390625,9.609375 L21.75,9.609375 C22.1015625,9.609375 22.3828125,9.328125 22.3828125,8.9765625 L22.3828125,6.3046875 C22.3828125,5.1796875 21.46875,4.265625 20.34375,4.265625 Z M8.71875,3.1875 C8.71875,2.765625 9.0703125,2.4140625 9.4921875,2.4140625 L13.0078125,2.4140625 C13.4296875,2.4140625 13.78125,2.765625 13.78125,3.1875 L13.78125,4.265625 L8.71875,4.265625 L8.71875,3.1875 Z" id="Shape"></path>
                    <path d="M20.859375,10.78125 L12.515625,10.78125 C12.4453125,11.4140625 11.90625,11.8828125 11.25,11.8828125 C10.59375,11.8828125 10.078125,11.390625 10.0078125,10.78125 L1.640625,10.78125 C1.2890625,10.78125 1.0078125,11.0625 1.0078125,11.4140625 L1.0078125,17.484375 C1.0078125,18.609375 1.921875,19.5 3.0234375,19.5 L19.453125,19.5 C20.578125,19.5 21.4921875,18.5859375 21.4921875,17.4609375 L21.4921875,11.4140625 C21.4921875,11.0625 21.2109375,10.78125 20.859375,10.78125 Z" id="Path"></path>
                </g>
            </g>
        </g>
    </g>
</svg>