<?xml version="1.0" encoding="UTF-8"?>
<svg width="40px" height="40px" viewBox="0 0 40 40" version="1.1" xmlns="http://www.w3.org/2000/svg" xmlns:xlink="http://www.w3.org/1999/xlink">
    <!-- Generator: sketchtool 54.1 (76490) - https://sketchapp.com -->
    <title>8E3730CF-4317-4AB5-B9B1-CF5B40A8D52D</title>
    <desc>Created with sketchtool.</desc>
    <g id="Web-screens-" stroke="none" stroke-width="1" fill="none" fill-rule="evenodd">
        <g id="Homepage-(Updated)-1" transform="translate(-252.000000, -6494.000000)" fill="#FFFFFF" fill-rule="nonzero">
            <g id="Group-15" transform="translate(-3.000000, 6073.000000)">
                <g id="Group-6" transform="translate(255.000000, 421.000000)">
                    <g id="Linkedin-Icon">
                        <g id="Combined-Shape">
                            <path d="M20,40 C8.954305,40 0,31.045695 0,20 C0,8.954305 8.954305,0 20,0 C31.045695,0 40,8.954305 40,20 C40,31.045695 31.045695,40 20,40 Z M30,21.0357857 C30,17.3052053 27.9907886,15.5692868 25.3106178,15.5693306 C23.1473274,15.5693306 22.1808438,16.7498358 21.6396678,17.5762113 L21.6396678,17.615452 L21.6128984,17.615452 C21.620673,17.6029703 21.6314073,17.5890872 21.6396678,17.5762113 L21.6396678,15.8546576 L17.5663808,15.8546576 C17.6212449,16.9948711 17.5663808,28 17.5663808,28 L21.6400654,28 L21.6400654,21.2172739 C21.6400654,20.8538596 21.6677183,20.4925037 21.7751496,20.2328845 C22.0697461,19.5066691 22.7393802,18.7559282 23.8646252,18.7559282 C25.3386683,18.7559282 25.9276848,19.8699082 25.9276848,21.5022068 L25.9276848,28 L30,28 L30,21.0357857 Z M13.3051333,10 C11.911531,10 11,10.9062584 11,12.098019 C11,13.2638089 11.8851592,14.1975708 13.2510642,14.1975708 L13.2782754,14.1975708 C14.698868,14.1975708 15.5823485,13.2639841 15.5823485,12.098019 C15.5555791,10.9062584 14.698868,10 13.3051333,10 Z M11.2419411,28 L15.3140797,28 L15.3140797,15.8546576 L11.2419411,15.8546576 L11.2419411,28 Z"></path>
                        </g>
                    </g>
                </g>
            </g>
        </g>
    </g>
</svg>