<?xml version="1.0" encoding="UTF-8"?>
<svg width="13px" height="10px" viewBox="0 0 13 10" version="1.1" xmlns="http://www.w3.org/2000/svg" xmlns:xlink="http://www.w3.org/1999/xlink">
    <!-- Generator: sketchtool 54.1 (76490) - https://sketchapp.com -->
    <title>B6262049-B85E-4E9C-891E-8E7283D33F6F</title>
    <desc>Created with sketchtool.</desc>
    <g id="Web-screens-" stroke="none" stroke-width="1" fill="none" fill-rule="evenodd">
        <g id="Menu-design" transform="translate(-263.000000, -25.000000)" fill="#FFFFFF" fill-rule="nonzero">
            <g id="Group-21">
                <path d="M263.833333,24.9999967 C263.3731,24.9999967 263,25.37308 263,25.83333 C263,26.2935783 263.3731,26.6666633 263.833333,26.6666633 L275.166667,26.6666633 C275.6269,26.6666633 276,26.2935783 276,25.83333 C276,25.37308 275.6269,24.9999967 275.166667,24.9999967 L263.833333,24.9999967 Z M263.833333,29.1666633 C263.3731,29.1666633 263,29.5397467 263,30.0000033 C263,30.4602533 263.3731,30.8333367 263.833333,30.8333367 L275.166667,30.8333367 C275.6269,30.8333367 276,30.4602533 276,30.0000033 C276,29.5397467 275.6269,29.1666633 275.166667,29.1666633 L263.833333,29.1666633 Z M263.833333,33.3333367 C263.3731,33.3333367 263,33.70642 263,34.16667 C263,34.62692 263.3731,35.0000033 263.833333,35.0000033 L275.166667,35.0000033 C275.6269,35.0000033 276,34.62692 276,34.16667 C276,33.70642 275.6269,33.3333367 275.166667,33.3333367 L263.833333,33.3333367 Z" id="menuicon"></path>
            </g>
        </g>
    </g>
</svg>