<?xml version="1.0" encoding="UTF-8"?>
<svg width="20px" height="20px" viewBox="0 0 20 20" version="1.1" xmlns="http://www.w3.org/2000/svg" xmlns:xlink="http://www.w3.org/1999/xlink">
    <!-- Generator: sketchtool 54.1 (76490) - https://sketchapp.com -->
    <title>65590604-476E-4152-9A1C-4FB562B71D70</title>
    <desc>Created with sketchtool.</desc>
    <defs>
        <path d="M13.8856782,17.2928932 C14.2762025,17.6834175 14.2762025,18.3165825 13.8856782,18.7071068 C13.4951539,19.0976311 12.8619889,19.0976311 12.4714646,18.7071068 L3.47146465,9.70710678 C3.08094036,9.31658249 3.08094036,8.68341751 3.47146465,8.29289322 L12.4714646,-0.707106781 C12.8619889,-1.09763107 13.4951539,-1.09763107 13.8856782,-0.707106781 C14.2762025,-0.316582489 14.2762025,0.316582489 13.8856782,0.707106781 L5.59278499,9 L13.8856782,17.2928932 Z" id="path-1"></path>
    </defs>
    <g id="Impact-stories" stroke="none" stroke-width="1" fill="none" fill-rule="evenodd">
        <g id="Impact-Stories---popup" transform="translate(-970.000000, -843.000000)">
            <g id="Group-3" transform="translate(255.000000, 58.000000)">
                <g id="Group-4" transform="translate(727.000000, 795.000000) scale(-1, 1) translate(-727.000000, -795.000000) translate(716.000000, 786.000000)">
                    <g id="Group-7">
                        <g id="Icons-/-Arrow-(Left)">
                            <mask id="mask-2" fill="white">
                                <use xlink:href="#path-1"></use>
                            </mask>
                            <use id="Icon" fill="#000000" fill-rule="nonzero" xlink:href="#path-1"></use>
                            <g id="Color" mask="url(#mask-2)" fill="#000000">
                                <rect x="0" y="0" width="18" height="18"></rect>
                            </g>
                        </g>
                        <path d="M7,9 L22,9" id="Path-2" stroke="#000000" stroke-width="1.5" stroke-linecap="round" stroke-linejoin="round"></path>
                    </g>
                </g>
            </g>
        </g>
    </g>
</svg>