<?xml version="1.0" encoding="UTF-8"?>
<svg width="22px" height="16px" viewBox="0 0 22 16" version="1.1" xmlns="http://www.w3.org/2000/svg" xmlns:xlink="http://www.w3.org/1999/xlink">
    <!-- Generator: sketchtool 54.1 (76490) - https://sketchapp.com -->
    <title>A7E3E5FE-2A2A-4FE8-8F2E-10F9398E3BBF</title>
    <desc>Created with sketchtool.</desc>
    <g id="Home-&amp;-brand-page" stroke="none" stroke-width="1" fill="none" fill-rule="evenodd">
        <g id="Brand-Page-(Updated)" transform="translate(-399.000000, -7164.000000)" fill="#5A0A56" fill-rule="nonzero">
            <g id="Group-30" transform="translate(-105.000000, 6271.000000)">
                <g id="Group-6" transform="translate(104.000000, 559.000000)">
                    <g id="Group-61" transform="translate(155.000000, 101.000000)">
                        <g id="Group-66">
                            <path d="M266.999996,240.997894 C266.988589,240.711894 266.868689,240.381334 266.668978,240.172853 L260.150463,233.372543 C259.708752,232.982823 258.861753,232.821943 258.368057,233.272543 C257.881775,233.716344 257.896238,234.577064 258.380686,235.022625 L262.964017,239.797869 L246.222222,239.797869 C245.547229,239.797869 245,240.335134 245,240.997894 C245,241.660655 245.547229,242.197935 246.222222,242.197935 L262.964017,242.197935 L258.380686,246.97318 C257.963623,247.38338 257.886542,248.274381 258.368057,248.723261 C258.849449,249.172102 259.726882,249.028701 260.150463,248.623221 L266.668978,241.822935 C266.892033,241.590215 267.00073,241.317174 266.999996,240.997894 L266.999996,240.997894 Z" id="Path"></path>
                        </g>
                    </g>
                </g>
            </g>
        </g>
    </g>
</svg>