<?xml version="1.0" encoding="UTF-8"?>
<svg width="22px" height="22px" viewBox="0 0 22 22" version="1.1" xmlns="http://www.w3.org/2000/svg" xmlns:xlink="http://www.w3.org/1999/xlink">
    <!-- Generator: sketchtool 54.1 (76490) - https://sketchapp.com -->
    <title>15753090-AE0A-4C55-A847-C3863524FF0F</title>
    <desc>Created with sketchtool.</desc>
    <g id="-" stroke="none" stroke-width="1" fill="none" fill-rule="evenodd">
        <g id="Homepage-(Updated)" transform="translate(-447.000000, -574.000000)" fill="#FFFFFF" fill-rule="nonzero" stroke="#FFFFFF">
            <g id="Group-12" transform="translate(407.000000, 563.000000)">
                <path d="M51,12 C45.4829756,12 41,16.4829734 41,22 C41,27.5170266 45.4829756,32 51,32 C56.5170244,32 61,27.5170266 61,22 C61,16.4829734 56.5170244,12 51,12 Z M51,13 C55.9762703,13 60,17.0237276 60,22 C60,26.9762724 55.9762703,31 51,31 C46.0237297,31 42,26.9762724 42,22 C42,17.0237276 46.0237297,13 51,13 Z M48,18 L48,26 L55,22 L48,18 Z" id="Shape"></path>
            </g>
        </g>
    </g>
</svg>