<?xml version="1.0" encoding="UTF-8"?>
<svg width="20px" height="20px" viewBox="0 0 20 20" version="1.1" xmlns="http://www.w3.org/2000/svg" xmlns:xlink="http://www.w3.org/1999/xlink">
    <!-- Generator: sketchtool 54.1 (76490) - https://sketchapp.com -->
    <title>F1D00F76-D615-4CAC-BB75-87076AF5FD3A</title>
    <desc>Created with sketchtool.</desc>
    <g id="Final" stroke="none" stroke-width="1" fill="none" fill-rule="evenodd">
        <g id="Homepage-(Updated)" transform="translate(-226.000000, -1889.000000)" fill="#C42279" fill-rule="nonzero">
            <g id="Group-9" transform="translate(157.000000, 1877.000000)">
                <g id="Group" transform="translate(69.000000, 12.000000)">
                    <path d="M10,0 C4.48297561,0 0,4.48297342 0,10 C0,15.5170266 4.48297561,20 10,20 C15.5170244,20 20,15.5170266 20,10 C20,4.48297342 15.5170244,0 10,0 Z M10,1 C14.9762703,1 19,5.02372755 19,10 C19,14.9762724 14.9762703,19 10,19 C5.02372973,19 1,14.9762724 1,10 C1,5.02372755 5.02372973,1 10,1 Z M7,6 L7,14 L14,10 L7,6 Z" id="Shape"></path>
                </g>
            </g>
        </g>
    </g>
</svg>