<?xml version="1.0" encoding="UTF-8"?>
<svg width="32px" height="32px" viewBox="0 0 32 32" version="1.1" xmlns="http://www.w3.org/2000/svg" xmlns:xlink="http://www.w3.org/1999/xlink">
    <!-- Generator: sketchtool 54.1 (76490) - https://sketchapp.com -->
    <title>A2CEA1F0-2851-47E1-89FB-5A27EC57D16F</title>
    <desc>Created with sketchtool.</desc>
    <g id="Home-&amp;-brand-page" stroke="none" stroke-width="1" fill="none" fill-rule="evenodd">
        <g id="Brand-Page-(Updated)" transform="translate(-624.000000, -2099.000000)" fill="#FFFFFF" fill-rule="nonzero">
            <g id="Group-57" transform="translate(155.000000, 1740.000000)">
                <g id="Group-51" transform="translate(336.000000, 344.000000)">
                    <g id="Group-50" transform="translate(118.000000, 0.000000)">
                        <g id="Video" transform="translate(15.000000, 15.000000)">
                            <path d="M20.9546253,9.39445515 L24.7095004,2.87793004 C23.1944539,1.86830745 21.5158369,1.12899469 19.7482203,0.692835011 L19.7482203,0.692835011 L14.7288002,9.41383515 L20.9546253,9.39445515 Z" id="Path"></path>
                            <path d="M30.2909405,9.39445515 C29.2087034,7.05059459 27.566435,5.00899043 25.5089254,3.44964005 L22.0738203,9.39445515 L30.2909405,9.39445515 Z" id="Path"></path>
                            <path d="M11.0902052,1.02229502 C6.92849376,2.38532122 3.52151421,5.4184282 1.68606003,9.39445515 L6.2597401,9.39445515 L11.0902052,1.02229502 Z" id="Path"></path>
                            <path d="M13.6047602,9.39445515 L18.7549953,0.484500008 C17.841758,0.322480373 16.915998,0.241415574 15.9885002,0.242250004 C14.791753,0.242372658 13.5988259,0.377267679 12.4322702,0.64438501 L12.4322702,0.64438501 L7.37893511,9.39445515 L13.6047602,9.39445515 Z" id="Path"></path>
                            <path d="M30.6979205,10.3634552 L1.27908002,10.3634552 C-1.22564828,16.9198985 0.911340549,24.3425092 6.51889299,28.5634059 C12.1264454,32.7843026 19.8505551,32.7843026 25.4581075,28.5634059 C31.0656599,24.3425092 33.2026488,16.9198985 30.6979205,10.3634552 Z M18.6823203,19.9662453 L16.5699003,21.1871853 L14.4526352,22.4081253 C14.1482354,22.6013037 13.761755,22.6095159 13.4494241,22.4294424 C13.1370931,22.2493688 12.9505568,21.9107854 12.9652202,21.5505603 L12.9652202,16.6668003 C12.9505568,16.3065752 13.1370931,15.9679918 13.4494241,15.7879182 C13.761755,15.6078447 14.1482354,15.6160569 14.4526352,15.8092352 L16.5699003,17.0301753 L18.6871653,18.2511153 C19.0051446,18.419547 19.203606,18.7503112 19.2025895,19.1101431 C19.2015731,19.4699751 19.0012461,19.7996128 18.6823203,19.9662453 L18.6823203,19.9662453 Z" id="Shape"></path>
                        </g>
                    </g>
                </g>
            </g>
        </g>
    </g>
</svg>