<?xml version="1.0" encoding="UTF-8"?>
<svg width="40px" height="40px" viewBox="0 0 40 40" version="1.1" xmlns="http://www.w3.org/2000/svg" xmlns:xlink="http://www.w3.org/1999/xlink">
    <!-- Generator: sketchtool 54.1 (76490) - https://sketchapp.com -->
    <title>EA5E8393-319F-431A-BAC9-633C83177B33</title>
    <desc>Created with sketchtool.</desc>
    <g id="Web-screens-" stroke="none" stroke-width="1" fill="none" fill-rule="evenodd">
        <g id="Homepage-(Updated)-1" transform="translate(-152.000000, -6494.000000)" fill="#FFFFFF" fill-rule="nonzero">
            <g id="Group-15" transform="translate(-3.000000, 6073.000000)">
                <path d="M175,461 C163.954305,461 155,452.045695 155,441 C155,429.954305 163.954305,421 175,421 C186.045695,421 195,429.954305 195,441 C195,452.045695 186.045695,461 175,461 Z M184.672414,436.1875 C184.672414,436.1 184.672414,436.0125 184.590517,435.925 C184.590517,435.925 184.590517,435.8375 184.590517,435.8375 C184.344828,435.05 183.689655,434.525 182.87069,434.525 L183.034483,434.525 C183.034483,434.525 179.840517,434 175.5,434 C171.241379,434 167.965517,434.525 167.965517,434.525 L168.12931,434.525 C167.310345,434.525 166.655172,435.05 166.409483,435.8375 C166.409483,435.8375 166.409483,435.925 166.409483,435.925 C166.409483,436.0125 166.409483,436.1 166.327586,436.1875 C166.24569,437.0625 166,438.9 166,441 C166,443.1 166.24569,444.9375 166.327586,445.8125 C166.327586,445.9 166.327586,445.9875 166.409483,446.075 C166.409483,446.075 166.409483,446.1625 166.409483,446.1625 C166.655172,446.95 167.310345,447.475 168.12931,447.475 L167.965517,447.475 C167.965517,447.475 171.159483,448 175.5,448 C179.758621,448 183.034483,447.475 183.034483,447.475 L182.87069,447.475 C183.689655,447.475 184.344828,446.95 184.590517,446.1625 C184.590517,446.1625 184.590517,446.075 184.590517,446.075 C184.590517,445.9875 184.590517,445.9 184.672414,445.8125 C184.75431,444.9375 185,443.1 185,441 C185,438.9 184.836207,437.0625 184.672414,436.1875 Z M178.284483,441.4375 L174.435345,444.4125 C174.353448,444.5 174.271552,444.5 174.189655,444.5 C174.107759,444.5 174.025862,444.5 173.943966,444.4125 C173.780172,444.325 173.698276,444.15 173.698276,443.975 L173.698276,438.025 C173.698276,437.85 173.780172,437.675 173.943966,437.5875 C174.107759,437.5 174.271552,437.5 174.435345,437.5875 L178.284483,440.5625 C178.366379,440.65 178.448276,440.825 178.448276,441 C178.530172,441.175 178.448276,441.35 178.284483,441.4375 Z" id="Combined-Shape"></path>
            </g>
        </g>
    </g>
</svg>